<?xml version="1.0" encoding="UTF-8"?>
<svg width="24px" height="24px" viewBox="0 0 24 24" version="1.1" xmlns="http://www.w3.org/2000/svg" xmlns:xlink="http://www.w3.org/1999/xlink">
    <!-- Generator: Sketch 51.3 (57544) - http://www.bohemiancoding.com/sketch -->
    <title>champion-2842_7e92c586-b2eb-4682-85e2-45475e9589f5</title>
    <desc>Created with Sketch.</desc>
    <defs></defs>
    <g id="Page-1" stroke="none" stroke-width="1" fill="none" fill-rule="evenodd" stroke-linecap="round" stroke-linejoin="round">
        <g id="Siena" transform="translate(-548.000000, -1223.000000)" stroke="#FFFFFF" stroke-width="1.5">
            <g id="Features" transform="translate(0.000000, 910.000000)">
                <g id="Content" transform="translate(405.000000, 290.000000)">
                    <g id="1">
                        <g id="Icon" transform="translate(120.000000, 0.000000)">
                            <g id="champion-2842_7e92c586-b2eb-4682-85e2-45475e9589f5" transform="translate(24.000000, 24.000000)">
                                <rect id="Rectangle-path" x="4.4" y="16.1333333" width="13.2" height="5.86666667" rx="2"></rect>
                                <path d="M8.06666667,19.0666667 L13.9333333,19.0666667 M11,16.1333333 L11,11.7333333" id="Shape"></path>
                                <path d="M5.13333333,1.46666667 C3.55666667,0.11 0,0.513333333 0,3.66666667 C0,6.82 2.2,9.53333333 6.89333333,10.12 M16.8666667,1.46666667 C18.4433333,0.11 22,0.513333333 22,3.66666667 C22,6.82 19.8,9.53333333 15.1066667,10.12" id="Shape"></path>
                                <path d="M11,11.7333333 C15.4,11.7333333 16.8666667,8.06666667 16.8666667,5.20666667 L16.8666667,0 L5.13333333,0 L5.13333333,5.13333333 C5.13333333,8.06666667 6.6,11.7333333 11,11.7333333 Z" id="Shape"></path>
                            </g>
                        </g>
                    </g>
                </g>
            </g>
        </g>
    </g>
</svg>