<?xml version="1.0" encoding="UTF-8"?>
<svg width="570px" height="457px" viewBox="0 0 570 457" version="1.1" xmlns="http://www.w3.org/2000/svg" xmlns:xlink="http://www.w3.org/1999/xlink">
    <!-- Generator: Sketch 51.3 (57544) - http://www.bohemiancoding.com/sketch -->
    <title>Image</title>
    <desc>Created with Sketch.</desc>
    <defs>
        <linearGradient x1="49.9984429%" y1="100%" x2="49.9984429%" y2="0%" id="linearGradient-1">
            <stop stop-color="#808080" stop-opacity="0.25" offset="0%"></stop>
            <stop stop-color="#808080" stop-opacity="0.12" offset="54%"></stop>
            <stop stop-color="#808080" stop-opacity="0.1" offset="100%"></stop>
        </linearGradient>
        <linearGradient x1="50%" y1="100%" x2="50%" y2="0%" id="linearGradient-2">
            <stop stop-color="#808080" stop-opacity="0.25" offset="0%"></stop>
            <stop stop-color="#808080" stop-opacity="0.12" offset="54%"></stop>
            <stop stop-color="#808080" stop-opacity="0.1" offset="100%"></stop>
        </linearGradient>
        <linearGradient x1="37%" y1="21.5328057%" x2="37%" y2="3.53280574%" id="linearGradient-3">
            <stop stop-color="#808080" stop-opacity="0.25" offset="0%"></stop>
            <stop stop-color="#808080" stop-opacity="0.12" offset="54%"></stop>
            <stop stop-color="#808080" stop-opacity="0.1" offset="100%"></stop>
        </linearGradient>
        <linearGradient x1="49.9974037%" y1="100%" x2="49.9974037%" y2="0.00511098643%" id="linearGradient-4">
            <stop stop-color="#808080" stop-opacity="0.25" offset="0%"></stop>
            <stop stop-color="#808080" stop-opacity="0.12" offset="54%"></stop>
            <stop stop-color="#808080" stop-opacity="0.1" offset="100%"></stop>
        </linearGradient>
        <linearGradient x1="49.9649841%" y1="99.992805%" x2="49.9649841%" y2="-0.00679819912%" id="linearGradient-5">
            <stop stop-color="#808080" stop-opacity="0.25" offset="0%"></stop>
            <stop stop-color="#808080" stop-opacity="0.12" offset="54%"></stop>
            <stop stop-color="#808080" stop-opacity="0.1" offset="100%"></stop>
        </linearGradient>
    </defs>
    <g id="Page-1" stroke="none" stroke-width="1" fill="none" fill-rule="evenodd">
        <g id="Siena" transform="translate(-375.000000, -1829.000000)" fill-rule="nonzero">
            <g id="Services" transform="translate(-452.000000, 1489.000000)">
                <g id="Content" transform="translate(827.000000, 340.000000)">
                    <g id="1">
                        <g id="Image">
                            <ellipse id="Oval" fill="#6C63FF" opacity="0.1" cx="97.96875" cy="439.682129" rx="97.96875" ry="16.6936523"></ellipse>
                            <ellipse id="Oval" fill="#6C63FF" opacity="0.1" cx="471.73623" cy="435.72998" rx="97.96875" ry="16.6936523"></ellipse>
                            <path d="M158.272701,0.246659114 C133.64222,1.56385438 108.754726,8.76023826 89.5375965,24.2292509 C72.6764263,37.8081419 60.5164651,59.1563432 63.4828317,80.6062791 C66.9846435,105.927484 89.5750777,124.3468 97.9547955,148.500734 C103.346729,164.028646 102.50608,181.162893 98.9774959,197.22625 C96.7072082,207.576406 93.2161053,217.937271 86.5069765,226.140292 C74.4219777,240.897163 52.6132935,248.018584 46.6752059,266.143405 C40.2177365,285.853144 56.489917,305.182717 71.7768783,319.200673 C83.9796751,330.386124 96.7607527,341.51803 112.13874,347.648878 C123.383089,352.135909 135.585886,353.747599 147.681594,354.390134 C181.082527,356.142624 214.476229,350.806931 245.668071,338.733715 C260.612347,332.934843 275.069368,325.58318 290.709724,322.086723 C324.041189,314.633325 358.336456,325.379711 392.117696,330.412896 C421.075531,334.714719 450.50365,334.801289 479.486294,330.66991 C497.723558,328.067646 516.565876,323.371792 530.300046,311.099387 C544.221622,298.639576 551.18241,279.352839 550.411369,260.665801 C549.640327,241.978762 541.758574,223.987803 530.150121,209.316603 C515.157655,190.367197 494.47876,176.884686 476.4878,160.735658 C458.168601,144.283116 442.584948,125.019538 430.321713,103.667905 C423.253836,91.3526648 417.240786,78.2824468 408.084672,67.4396809 C393.804348,50.5410295 373.093327,40.4907225 352.398368,32.7267667 C304.658072,14.8428961 255.140097,11.2018685 205.365108,3.29869692 C189.810425,0.81958551 174.030854,-0.577926538 158.272701,0.246659114 Z" id="Shape" fill="#664FFA" opacity="0.049999997"></path>
                            <g id="Group" opacity="0.7" transform="translate(143.613281, 40.078125)">
                                <rect id="Rectangle-path" fill="#F6F7F9" x="0.300585938" y="164.270215" width="106.296094" height="59.3991211"></rect>
                                <g opacity="0.2" transform="translate(8.906250, 179.238281)" fill="#6C63FF" id="Oval">
                                    <circle cx="11.4055664" cy="11.4" r="11.0660156"></circle>
                                </g>
                                <g opacity="0.2" transform="translate(44.531250, 177.011719)" fill="#6C63FF" id="Rectangle-path">
                                    <rect x="0.339550781" y="0.512109375" width="48.2162109" height="3.03369141"></rect>
                                </g>
                                <g opacity="0.2" transform="translate(44.531250, 184.804687)" fill="#6C63FF" id="Rectangle-path">
                                    <rect x="0.339550781" y="0.450878906" width="24.5645508" height="3.03369141"></rect>
                                </g>
                                <g opacity="0.2" transform="translate(44.531250, 192.597656)" fill="#6C63FF" id="Rectangle-path">
                                    <rect x="0.339550781" y="0.389648437" width="39.7274414" height="3.03369141"></rect>
                                </g>
                                <g opacity="0.2" transform="translate(44.531250, 200.390625)" fill="#6C63FF" id="Rectangle-path">
                                    <rect x="0.339550781" y="0.328417969" width="48.2162109" height="3.03369141"></rect>
                                </g>
                                <g opacity="0.2" transform="translate(79.599609, 211.523437)" fill="#6C63FF" id="Rectangle-path">
                                    <rect x="0.150292969" y="0.35625" width="13.3426758" height="5.86142578"></rect>
                                </g>
                                <rect id="Rectangle-path" fill="#F6F7F9" x="89.7916992" y="0.111328125" width="106.296094" height="59.3991211"></rect>
                                <g opacity="0.2" transform="translate(98.525391, 15.029297)" fill="#6C63FF" id="Oval">
                                    <circle cx="11.2831055" cy="11.4500977" r="11.0660156"></circle>
                                </g>
                                <g opacity="0.2" transform="translate(134.150391, 13.359375)" fill="#6C63FF" id="Rectangle-path">
                                    <rect x="0.217089844" y="0.00556640625" width="48.2162109" height="3.03369141"></rect>
                                </g>
                                <g opacity="0.2" transform="translate(134.150391, 20.595703)" fill="#6C63FF" id="Rectangle-path">
                                    <rect x="0.217089844" y="0.500976563" width="24.5645508" height="3.03369141"></rect>
                                </g>
                                <g opacity="0.2" transform="translate(134.150391, 28.388672)" fill="#6C63FF" id="Rectangle-path">
                                    <rect x="0.217089844" y="0.439746094" width="39.7274414" height="3.03369141"></rect>
                                </g>
                                <g opacity="0.2" transform="translate(134.150391, 36.181641)" fill="#6C63FF" id="Rectangle-path">
                                    <rect x="0.217089844" y="0.384082031" width="48.2162109" height="3.03369141"></rect>
                                </g>
                                <g opacity="0.2" transform="translate(169.218750, 47.314453)" fill="#6C63FF" id="Rectangle-path">
                                    <rect x="0.022265625" y="0.406347656" width="13.3426758" height="5.86142578"></rect>
                                </g>
                                <rect id="Rectangle-path" fill="#F6F7F9" x="125.171777" y="99.8390625" width="106.296094" height="59.3991211"></rect>
                                <g opacity="0.2" transform="translate(133.593750, 114.667969)" fill="#6C63FF" id="Oval">
                                    <circle cx="11.5892578" cy="11.5447266" r="11.0660156"></circle>
                                </g>
                                <g opacity="0.2" transform="translate(169.218750, 112.998047)" fill="#6C63FF" id="Rectangle-path">
                                    <rect x="0.528808594" y="0.100195313" width="48.2162109" height="3.03369141"></rect>
                                </g>
                                <g opacity="0.2" transform="translate(169.218750, 120.791016)" fill="#6C63FF" id="Rectangle-path">
                                    <rect x="0.528808594" y="0.0389648437" width="24.5645508" height="3.03369141"></rect>
                                </g>
                                <g opacity="0.2" transform="translate(169.218750, 128.027344)" fill="#6C63FF" id="Rectangle-path">
                                    <rect x="0.528808594" y="0.534375" width="39.7274414" height="3.03369141"></rect>
                                </g>
                                <g opacity="0.2" transform="translate(169.218750, 135.820312)" fill="#6C63FF" id="Rectangle-path">
                                    <rect x="0.528808594" y="0.473144531" width="48.2162109" height="3.03369141"></rect>
                                </g>
                                <g opacity="0.2" transform="translate(204.287109, 146.953125)" fill="#6C63FF" id="Rectangle-path">
                                    <rect x="0.333984375" y="0.500976562" width="13.3426758" height="5.86142578"></rect>
                                </g>
                            </g>
                            <rect id="Rectangle-path" fill="url(#linearGradient-1)" x="106.808203" y="75.5416992" width="178.742871" height="100.996875"></rect>
                            <rect id="Rectangle-path" fill="#F6F7F9" x="108.071777" y="76.7941406" width="176.232422" height="98.4864258"></rect>
                            <g id="Group" opacity="0.2" transform="translate(122.460937, 101.865234)" fill="#6C63FF">
                                <circle id="Oval" cx="18.7866211" cy="18.6530273" r="18.346875"></circle>
                            </g>
                            <g id="Group" opacity="0.2" transform="translate(181.464844, 98.525391)" fill="#6C63FF">
                                <rect id="Rectangle-path" x="0.512109375" y="0.244921875" width="79.9447266" height="5.02646484"></rect>
                            </g>
                            <g id="Group" opacity="0.2" transform="translate(181.464844, 111.328125)" fill="#6C63FF">
                                <rect id="Rectangle-path" x="0.512109375" y="0.2671875" width="40.7238281" height="5.02646484"></rect>
                            </g>
                            <g id="Group" opacity="0.2" transform="translate(181.464844, 124.130859)" fill="#6C63FF">
                                <rect id="Rectangle-path" x="0.512109375" y="0.283886719" width="65.8672852" height="5.02646484"></rect>
                            </g>
                            <g id="Group" opacity="0.2" transform="translate(181.464844, 136.933594)" fill="#6C63FF">
                                <rect id="Rectangle-path" x="0.512109375" y="0.300585937" width="79.9447266" height="5.02646484"></rect>
                            </g>
                            <rect id="Rectangle-path" fill="#6C63FF" x="239.795215" y="155.736914" width="22.1208984" height="9.71894531"></rect>
                            <rect id="Rectangle-path" fill="url(#linearGradient-2)" x="232.185937" y="211.979883" width="170.00918" height="95.0018555"></rect>
                            <rect id="Rectangle-path" fill="#F6F7F9" x="233.360449" y="212.631152" width="167.660156" height="93.69375"></rect>
                            <g id="Group" opacity="0.2" transform="translate(247.148437, 236.572266)" fill="#6C63FF">
                                <circle id="Oval" cx="17.7791016" cy="17.6566406" r="17.45625"></circle>
                            </g>
                            <g id="Group" opacity="0.2" transform="translate(303.369141, 233.232422)" fill="#6C63FF">
                                <rect id="Rectangle-path" x="0.300585937" y="0.306152344" width="76.0538086" height="4.78154297"></rect>
                            </g>
                            <g id="Group" opacity="0.2" transform="translate(303.369141, 245.478516)" fill="#6C63FF">
                                <rect id="Rectangle-path" x="0.300585937" y="0.261621094" width="38.7421875" height="4.78154297"></rect>
                            </g>
                            <g id="Group" opacity="0.2" transform="translate(303.369141, 257.724609)" fill="#6C63FF">
                                <rect id="Rectangle-path" x="0.300585937" y="0.211523437" width="62.6610352" height="4.78154297"></rect>
                            </g>
                            <g id="Group" opacity="0.2" transform="translate(303.369141, 269.970703)" fill="#6C63FF">
                                <rect id="Rectangle-path" x="0.300585937" y="0.161425781" width="76.0538086" height="4.78154297"></rect>
                            </g>
                            <g id="Group" opacity="0.5" transform="translate(358.476563, 287.226563)" fill="#6C63FF">
                                <rect id="Rectangle-path" x="0.200390625" y="0.506542969" width="21.046582" height="9.24580078"></rect>
                            </g>
                            <g id="Group" opacity="0.1" transform="translate(45.644531, 159.755859)" fill="url(#linearGradient-3)">
                                <path d="M0.478710937,0.512109375 L0.890625,0.601171875 C0.770299339,0.518646281 0.622381656,0.486664079 0.478710937,0.512109375 Z" id="Shape"></path>
                            </g>
                            <path d="M132.856476,260.898157 C131.868985,254.267225 125.84574,238.798029 125.84574,238.798029 C125.738501,238.351201 125.622326,237.877563 125.488277,237.421798 C121.212131,222.725616 115.296124,221.425345 115.296124,221.425345 L94.1030582,216.907911 C94.2779746,217.017428 94.4297696,217.160116 94.5498865,217.32793 L94.2147653,217.381549 C93.2421441,216.234305 92.5996397,214.844272 92.3559596,213.360095 C92.315745,213.141149 92.2799987,212.913266 92.2531891,212.680916 C95.3347655,209.67984 96.9692155,205.493557 96.7363046,201.198406 C96.5033937,196.903255 94.4258442,192.918261 91.0378161,190.268009 C90.8188702,190.093746 90.5909878,189.928419 90.3586371,189.763093 C91.3595325,188.70411 91.3908104,187.225108 90.6446072,185.741638 C88.9734694,182.269782 85.3452237,180.075855 81.6097391,179.007936 C78.7589746,178.19024 75.6669229,177.926611 72.8429681,178.820268 C71.2299179,179.329652 69.7643211,180.192031 68.2540415,180.947171 C65.4390233,182.35468 62.3380349,183.467282 60.2111323,185.777384 C59.7151529,186.318047 59.2638563,187.006162 59.4068413,187.716619 C59.5185484,188.248345 59.9340987,188.654959 60.206664,189.128597 C60.8098822,190.183111 60.6534923,191.510191 60.2468785,192.65854 C59.8402648,193.806889 59.2236417,194.892681 58.9332034,196.054435 C58.642765,197.216189 58.7589403,198.619229 59.6436603,199.459267 C60.0734967,199.795645 60.5209599,200.108869 60.9841452,200.397606 C61.4696106,200.80851 61.895239,201.285274 62.2486693,201.814052 L64.7598443,205.205478 C65.9320324,206.708948 66.9781802,208.306565 67.8876423,209.982073 C68.5087336,211.210851 68.9957765,212.528994 69.8313454,213.628192 C70.0771679,213.955051 70.3572881,214.254645 70.6669143,214.521848 C70.5864852,214.49057 70.5015878,214.463761 70.4211587,214.428014 C71.1689466,215.157089 72.1836871,215.546504 73.2272404,215.504871 L73.3523523,215.504871 C73.5439077,215.501763 73.7273062,215.426809 73.8662049,215.294861 L73.8662049,215.74169 C73.9108877,217.372613 73.9064194,219.106307 73.790244,220.732762 L73.5936396,220.634459 C72.9992352,220.336002 72.2854495,220.411046 71.7661119,220.826596 L52.2441838,236.465586 C52.2441838,236.465586 48.0037833,242.274354 48.5935967,252.283307 L45.1753603,267.305674 C45.1753603,267.305674 40.8992135,280.053686 44.1878697,289.155578 C47.476526,298.25747 49.3844828,303.454083 49.3844828,303.454083 C49.3844828,303.454083 50.6981579,313.79369 52.673139,314.62479 C54.64812,315.455891 55.5015621,315.929529 55.5015621,315.929529 L55.894771,318.40049 C55.894771,318.40049 56.0243512,318.637309 56.2567019,319.048391 C57.695489,321.546161 63.0172139,330.366551 66.113734,329.428212 C66.500509,331.822363 66.6695055,334.24664 66.61865,336.671298 L69.6749555,357.2254 C69.6749555,357.2254 71.8107947,362.815222 71.6812145,365.741947 C71.5516343,368.668672 74.1789847,372.833112 74.1789847,372.833112 C72.5839585,375.750139 72.1164394,379.151579 72.8653095,382.390769 C74.1164287,387.855479 75.6937326,413.083405 75.6937326,413.083405 L77.9948983,419.196016 L77.927874,426.345268 C77.7373284,427.506429 77.2510647,428.598984 76.5158966,429.517749 C75.0324267,431.126331 75.1307289,432.985137 71.6007854,435.179064 C68.0708419,437.37299 65.7920176,438.199623 65.7920176,441.126348 C65.7879351,441.530682 65.7520784,441.93407 65.6847788,442.332784 C65.3541259,444.473092 64.7151614,445.625909 71.2701325,446.251469 C78.9645157,446.979799 84.0941044,441.957449 84.0941044,441.957449 C84.0941044,441.957449 85.22458,439.906507 90.5552415,439.079875 C90.5552415,439.079875 92.3738327,438.981572 92.4766032,437.368522 C92.5123495,436.814455 92.5034129,435.751004 92.4542618,434.580314 C92.3693644,432.346172 92.1548868,429.745632 91.873385,429.616051 C91.5203907,429.459661 90.894831,427.212115 90.6803535,426.398888 L92.1638234,426.398888 C92.1638234,426.398888 93.5445228,416.059281 92.1638234,409.356857 C90.783124,402.654432 92.0342432,397.913584 92.0342432,397.913584 L91.7706145,380.22812 C91.7706145,380.22812 89.9073405,378.338037 91.368469,374.897459 C92.8295975,371.456881 91.368469,354.41485 91.368469,354.41485 C91.368469,354.41485 91.9001947,348.302239 93.4104743,346.872388 C94.920754,345.442538 93.4864351,337.913481 93.4104743,337.520272 L96.0914441,346.546204 C96.0914441,346.546204 97.275539,364.495296 99.7777775,367.748206 L100.501639,375.871544 C100.501639,375.871544 105.631228,383.35145 104.643738,387.386309 C103.656247,391.421169 105.698252,405.983303 105.698252,405.983303 L105.698252,420.87609 C105.698252,420.87609 103.392618,426.859121 106.618719,429.003897 L108.008355,428.950277 C107.534717,429.397105 107.195127,430.018197 106.66787,430.567796 C106.051247,431.202292 105.702721,433.615165 105.506116,435.688448 C105.34079,437.444483 105.28717,438.954763 105.28717,438.954763 C105.28717,438.954763 106.66787,441.14869 109.232664,441.296143 C111.797459,441.443596 120.282728,447.931543 120.282728,447.931543 C120.282728,447.931543 128.674163,447.931543 130.84128,447.484715 L130.970861,447.453437 C131.667017,447.231562 132.252058,446.75202 132.606252,446.112952 C133.043434,445.37303 133.185444,444.495435 133.003929,443.655396 C132.731364,442.372999 131.717064,440.974426 129.460581,439.772458 C123.835013,436.80105 122.999444,434.021778 122.999444,434.021778 L119.31311,428.498981 L119.840368,428.498981 C119.840368,428.498981 119.514183,422.64553 123.522233,416.077154 L123.263072,387.140554 C123.263072,387.140554 124.902932,377.189688 122.078978,371.792002 C122.078978,371.792002 121.846627,366.068132 123.73671,364.312096 C125.626794,362.556061 121.221067,344.803573 121.221067,344.803573 C121.221067,344.803573 120.327411,335.277194 119.23715,326.581916 C123.674155,330.791038 128.280954,315.630154 129.067372,312.93578 L129.183547,312.93578 C129.183547,312.93578 129.161206,312.864287 129.129928,312.739175 C129.09865,312.614063 129.183547,312.547039 129.183547,312.547039 C129.183547,312.524698 128.200525,309.039437 128.919919,309.749894 C129.639312,310.460351 131.422157,307.801722 131.422157,307.801722 C131.422157,307.801722 131.158528,293.297676 134.25058,285.987565 C137.342632,278.677454 132.856476,260.898157 132.856476,260.898157 Z M119.634827,270.125161 L119.657168,270.084946 C120.103996,278.941083 119.567803,297.837452 119.567803,297.837452 C119.567803,297.837452 118.960116,300.259261 118.307747,303.110025 L117.838577,285.156465 L117.391749,268.248482 L119.634827,270.125161 Z M63.0082774,264.021486 C63.0082774,264.021486 65.2424188,291.984001 63.0082774,296.014392 C62.3693129,297.162741 61.8375872,299.204746 61.3952272,301.541658 C60.6579606,299.602423 59.0940615,295.049243 59.6525969,292.63637 C60.3764587,289.508572 58.2048732,281.31821 58.2048732,281.126073 C58.2048732,280.933937 58.0082688,276.572893 59.5855727,273.221681 C61.1628765,269.870469 60.11283,268.440618 60.11283,268.440618 C60.11283,268.440618 61.4309735,262.980377 63.0082774,264.021486 Z" id="Shape" fill="url(#linearGradient-4)"></path>
                            <path d="M68.450646,326.997466 C66.5069429,335.558696 58.7589403,322.609612 56.9939686,319.504155 L56.6365059,318.860723 L57.4765431,314.924165 L61.9180163,313.114511 C62.6195936,313.481403 63.2839992,313.915361 63.901934,314.410313 C66.3460847,316.304865 69.951989,320.366534 68.450646,326.997466 Z" id="Shape" fill="#EFB7B9"></path>
                            <path d="M128.549051,312.984931 L128.4999,313.177067 C128.4999,313.235154 128.459686,313.302179 128.437344,313.387076 C127.677736,316.068046 123.160302,331.108286 118.799258,326.930442 C114.027132,322.345983 116.346171,311.818709 116.346171,311.818709 L116.390853,311.818709 L126.431085,310.791004 L128.419471,312.837477 L128.549051,312.984931 Z" id="Shape" fill="#EFB7B9"></path>
                            <path d="M122.740283,387.028847 L122.994976,415.750969 C119.062887,422.274662 119.380135,428.08343 119.380135,428.08343 L106.422114,428.597283 C103.25857,426.47038 105.528458,420.532032 105.528458,420.532032 L105.528458,405.746484 C105.528458,405.746484 103.504325,391.296057 104.469475,387.274602 C105.434624,383.253148 100.403337,375.849203 100.403337,375.849203 L99.6973484,367.783952 C97.2397928,364.557852 96.0780392,346.73834 96.0780392,346.73834 L93.437284,337.801774 C93.5043083,338.190515 94.8760711,345.701698 93.437284,347.082398 C91.9984969,348.463097 91.4354933,354.57124 91.4354933,354.57124 C91.4354933,354.57124 92.8564072,371.483691 91.4354933,374.901927 C90.0145793,378.320163 91.8197656,380.263867 91.8197656,380.263867 L92.0833943,397.81975 C92.0833943,397.81975 90.8546165,402.533789 92.2085062,409.182594 C93.5623959,415.831399 92.2085062,426.095044 92.2085062,426.095044 L78.2674635,426.095044 L78.3300195,418.945792 L76.0735366,412.877864 C76.0735366,412.877864 74.5230424,387.833138 73.2987329,382.413111 C72.5628574,379.198175 73.0201862,375.825374 74.5855984,372.922478 C74.5855984,372.922478 72.0073992,368.789316 72.1369794,365.884932 C72.2665596,362.980548 70.1664666,357.430941 70.1664666,357.430941 L67.1637805,337.033229 C67.2483405,333.108569 66.7483746,329.193173 65.6803106,325.415694 C63.9332119,319.606926 61.3550127,311.988504 61.3550127,311.988504 L64.2683332,312.247664 L78.9779205,313.556871 C78.9779205,313.556871 114.724184,311.152935 116.337234,313.150257 C116.676794,313.802174 116.906279,314.505726 117.016413,315.232477 C118.620527,322.448754 120.742961,345.040392 120.742961,345.040392 C120.742961,345.040392 125.068259,362.6633 123.209453,364.40593 C121.350647,366.148561 121.582998,371.827748 121.582998,371.827748 C124.353334,377.153942 122.740283,387.028847 122.740283,387.028847 Z" id="Shape" fill="#65617D"></path>
                            <path d="M92.5123495,436.970845 C92.409579,438.57049 90.6222658,438.668792 90.6222658,438.668792 C85.3943748,439.490957 84.2862406,441.528494 84.2862406,441.528494 C84.2862406,441.528494 79.2504858,446.510629 71.7080242,445.809109 C65.2781651,445.192486 65.8992564,444.021795 66.2299094,441.921702 C66.2957414,441.525877 66.3301057,441.125457 66.3326799,440.724203 C66.3326799,437.819819 68.5668213,436.993186 72.0476137,434.817133 C75.5284061,432.641079 75.4345722,430.795678 76.8867641,429.200501 C78.3389561,427.605324 78.4864094,424.508804 78.4864094,424.508804 C80.1307375,421.649103 84.2951772,424.955632 84.2951772,424.955632 C84.4873133,425.969932 90.6848217,425.849289 90.6848217,425.849289 C90.6848217,425.849289 91.5069858,429.142413 91.9270044,429.334549 C92.2040379,429.46413 92.4140472,432.046797 92.4989446,434.249661 C92.5391592,435.366731 92.5436274,436.425714 92.5123495,436.970845 Z" id="Shape" fill="#B07473"></path>
                            <path d="M92.5123495,436.970845 C92.409579,438.57049 90.6222658,438.668792 90.6222658,438.668792 C85.3943748,439.490957 84.2862406,441.528494 84.2862406,441.528494 C84.2862406,441.528494 79.2504858,446.510629 71.7080242,445.809109 C65.2781651,445.192486 65.8992564,444.021795 66.2299094,441.921702 C69.1030153,442.636628 74.5990033,443.628587 77.8072304,441.885956 C82.2755133,439.464147 85.461399,437.770668 85.461399,437.770668 L92.490008,434.191573 C92.5391592,435.366731 92.5436274,436.425714 92.5123495,436.970845 Z" id="Shape" fill="#000000" opacity="0.1"></path>
                            <path d="M131.913668,445.590163 C131.570515,446.227802 130.994153,446.708104 130.305086,446.930648 C130.264544,446.945266 130.222627,446.955746 130.179974,446.961926 C128.048603,447.408754 119.818026,447.408754 119.818026,447.408754 C119.818026,447.408754 111.475742,440.947617 108.973504,440.800163 C106.471265,440.65271 105.099502,438.476656 105.099502,438.476656 C105.099502,438.476656 105.148654,436.975313 105.309512,435.232683 C105.506116,433.172805 105.850174,430.7644 106.453392,430.147777 C107.570463,428.986023 107.793877,427.390846 110.327393,428.405147 C110.327393,428.405147 113.90202,422.100399 118.120079,426.970828 L122.481123,433.588355 C122.481123,433.588355 123.303287,436.345285 128.826085,439.29882 C131.037885,440.482915 132.034312,441.87702 132.297941,443.15048 C132.479262,443.983153 132.342168,444.853542 131.913668,445.590163 Z" id="Shape" fill="#B07473"></path>
                            <path d="M131.913668,445.590163 C131.422157,446.005713 130.872558,446.452541 130.305086,446.930648 C130.264544,446.945266 130.222627,446.955746 130.179974,446.961926 C128.048603,447.408754 119.818026,447.408754 119.818026,447.408754 C119.818026,447.408754 111.475742,440.947617 108.973504,440.800163 C106.471265,440.65271 105.099502,438.476656 105.099502,438.476656 C105.099502,438.476656 105.148654,436.975313 105.309512,435.232683 C107.869838,436.001228 111.757244,437.355117 112.798354,438.807309 C114.393531,441.041451 119.241618,444.129034 119.241618,444.129034 C119.241618,444.129034 128.280954,443.262187 132.297941,443.141544 C132.481588,443.977055 132.344424,444.851073 131.913668,445.590163 Z" id="Shape" fill="#000000" opacity="0.1"></path>
                            <path d="M96.7304085,220.32168 L84.8179663,232.908833 C84.8179663,232.908833 70.3898807,231.845381 72.9099923,227.582639 C74.1923895,225.415522 74.3934622,220.880215 74.2817552,216.921316 C74.1745164,213.109871 73.7813075,209.865898 73.7813075,209.865898 C73.7813075,209.865898 94.0181608,199.794388 92.4676666,209.186719 C92.1385816,210.957244 92.118928,212.771418 92.409579,214.548658 C93.2898307,219.293974 96.7304085,220.32168 96.7304085,220.32168 Z" id="Shape" fill="#EFB7B9"></path>
                            <path d="M92.4631983,209.186719 C92.1341133,210.957244 92.1144598,212.771418 92.4051107,214.548658 C89.6097071,217.380876 85.7946912,218.97288 81.8152802,218.96779 C79.0628179,218.96779 76.1182194,216.733648 73.9064194,215.415505 C73.7991806,211.60406 73.7768392,209.865898 73.7768392,209.865898 C73.7768392,209.865898 94.0136925,199.794388 92.4631983,209.186719 Z" id="Shape" fill="#000000" opacity="0.1"></path>
                            <path d="M96.7304085,203.279649 C96.7327491,210.239246 91.9216078,216.2754 85.1367753,217.825254 C78.3519427,219.375107 71.3970826,216.02665 68.3773222,209.75632 C65.3575618,203.485989 67.075667,195.960675 72.5175209,191.622216 C77.9593748,187.283757 85.6783281,187.28548 91.1182452,191.626367 C94.6635384,194.455402 96.7288831,198.743952 96.7304085,203.279649 Z" id="Shape" fill="#EFB7B9"></path>
                            <path d="M117.011945,315.196731 C113.298802,324.034994 89.4113611,324.218194 89.4113611,324.218194 L89.4113611,314.584576 L87.9636375,314.490742 C88.5891971,317.247673 87.0699809,323.976907 87.0699809,323.976907 C68.1914856,326.657876 63.5936224,315.893783 63.5936224,315.893783 L64.2459917,312.211918 L78.9555791,313.521125 C78.9555791,313.521125 114.701842,311.117188 116.314893,313.114511 C116.660659,313.765318 116.8962,314.46892 117.011945,315.196731 Z" id="Shape" fill="#000000" opacity="0.1"></path>
                            <path d="M89.4113611,323.05644 L89.4113611,313.418354 L87.9636375,313.328988 C88.5891971,316.085919 87.0699809,322.815153 87.0699809,322.815153 C72.8653095,324.816944 66.7392936,319.240527 64.581113,316.336143 C64.1951046,315.83699 63.8640285,315.297681 63.5936224,314.727561 L69.3532391,282.292295 L70.693724,234.557629 L72.7714755,226.184067 L73.2540501,222.162612 L73.2540501,222.117929 L73.3032012,222.140271 L74.768798,222.770299 L83.5623788,226.568339 L93.6026105,219.030346 L93.7500638,218.918639 L94.2460432,218.543303 L95.0726756,219.209077 L97.1236174,220.853405 L103.709866,263.364649 C103.709866,263.364649 115.130798,296.09929 117.248764,309.312002 C117.333661,309.839259 117.405154,310.330771 117.458773,310.791004 C118.848409,322.833026 89.4113611,323.05644 89.4113611,323.05644 Z" id="Shape" fill="#E1E7EF"></path>
                            <circle id="Oval" fill="#67647E" cx="84.6660447" cy="227.488805" r="1"></circle>
                            <circle id="Oval" fill="#67647E" cx="85.0592536" cy="235.23234" r="1"></circle>
                            <circle id="Oval" fill="#67647E" cx="85.903759" cy="247.77481" r="1"></circle>
                            <circle id="Oval" fill="#67647E" cx="87.3112681" cy="261.277961" r="1"></circle>
                            <circle id="Oval" fill="#67647E" cx="88.1557736" cy="273.963416" r="1"></circle>
                            <circle id="Oval" fill="#67647E" cx="89.0047474" cy="287.471035" r="1"></circle>
                            <circle id="Oval" fill="#67647E" cx="88.6651579" cy="300.835669" r="1"></circle>
                            <path d="M73.8528,287.010802 C73.8528,287.010802 72.905524,299.432629 71.1718303,303.043001 C69.4381365,306.653374 68.6517187,316.791908 68.6517187,316.791908 L64.6302641,316.345079 C64.2442557,315.845927 63.9131796,315.306617 63.6427735,314.736498 L69.4023902,282.301232 L70.7428751,234.566566 L72.8206267,226.193003 L73.3032012,222.171549 C73.3188942,222.159681 73.337344,222.151994 73.3568206,222.149207 C73.8139546,221.933242 74.3453995,221.941494 74.7956077,222.171549 L74.9922122,222.269851 C74.9341245,222.435177 74.8760368,222.604972 74.8224174,222.779235 C73.2495818,227.716688 72.6597685,236.823048 72.6597685,236.823048 C72.6597685,236.823048 74.9207196,253.476339 75.1754118,261.224341 C75.4301039,268.972344 73.8528,287.010802 73.8528,287.010802 Z" id="Shape" fill="#000000" opacity="0.1"></path>
                            <path d="M63.901934,314.410313 C63.8575973,314.51318 63.8068573,314.613168 63.7500123,314.709688 C62.181645,317.35938 58.2048732,319.043922 56.9939686,319.504155 L56.6365059,318.860723 L57.4765431,314.924165 L61.9180163,313.114511 C62.6195936,313.481403 63.2839992,313.915361 63.901934,314.410313 Z" id="Shape" fill="#000000" opacity="0.1"></path>
                            <path d="M53.1512453,251.018783 L49.4738484,253.226115 L46.1136997,268.136775 C46.1136997,268.136775 41.917982,280.790952 45.1485506,289.82582 C48.3791191,298.860688 50.2602662,304.012619 50.2602662,304.012619 C50.2602662,304.012619 51.5516,314.289669 53.4863665,315.116302 C55.421133,315.942934 56.2656385,316.407635 56.2656385,316.407635 L56.6499108,318.860723 C56.6499108,318.860723 61.9046115,317.07341 63.7634172,313.945611 C65.6222229,310.817813 62.3961226,302.99385 62.3961226,302.99385 C62.3961226,302.99385 59.6213189,296.345045 60.3317759,293.248525 C61.0422329,290.152005 58.9108619,282.015262 58.9108619,281.823126 C58.9108619,281.630989 58.7187258,277.301223 60.2513468,273.976821 C61.7839679,270.652418 60.7696676,269.235973 60.7696676,269.235973 L59.8000502,259.74534 L53.1512453,251.018783 Z" id="Shape" fill="#6262A0"></path>
                            <path d="M117.315788,312.404054 C117.315788,312.404054 107.570463,316.085919 104.469475,312.850882 C101.368486,309.615845 101.694671,294.530922 101.694671,294.530922 C101.694671,294.530922 98.727731,266.644369 96.8510522,262.064379 C94.9743733,257.484389 95.9573956,224.428032 95.9573956,224.428032 C95.9573956,224.428032 94.6884032,220.160821 93.6026105,219.030346 C93.5343141,218.955973 93.4561346,218.891325 93.3702598,218.83821 L93.7500638,218.918639 L95.0905487,219.209077 L97.1414906,220.853405 L103.72774,263.364649 C103.72774,263.364649 115.148671,296.09929 117.266637,309.312002 L117.315788,312.404054 Z" id="Shape" fill="#000000" opacity="0.1"></path>
                            <path d="M128.549051,313.373671 L128.437344,313.373671 C127.213035,313.530061 116.37298,314.839268 116.332766,312.587253 C116.332955,312.325971 116.347873,312.064907 116.377449,311.805304 L126.41768,310.777599 L128.406066,312.824072 C128.441812,312.958121 128.47309,313.074296 128.4999,313.163662 L128.549051,313.373671 Z" id="Shape" fill="#000000" opacity="0.1"></path>
                            <path d="M118.178167,236.081313 L125.305078,239.794457 C125.305078,239.794457 131.216616,255.147477 132.186233,261.733726 C132.186233,261.733726 136.574087,279.370038 133.526718,286.622061 C130.479349,293.874085 130.751915,308.27536 130.751915,308.27536 C130.751915,308.27536 129.009284,310.920584 128.298827,310.210127 C127.58837,309.49967 128.557988,312.984931 128.557988,312.984931 C128.557988,312.984931 116.390853,314.602449 116.332766,312.207449 C116.274678,309.81245 119.125443,298.391519 119.125443,298.391519 C119.125443,298.391519 119.898455,271.215422 118.799258,266.957148 C117.70006,262.698875 118.178167,236.081313 118.178167,236.081313 Z" id="Shape" fill="#6262A0"></path>
                            <path d="M96.9180764,265.02685 C96.9180764,265.02685 92.8966218,274.834731 91.6231612,275.482632 C90.3497005,276.130533 91.8823216,278.708732 91.8823216,278.708732 C91.8823216,278.708732 99.1790276,268.512111 96.9180764,265.02685 Z" id="Shape" fill="#000000" opacity="0.1"></path>
                            <path d="M94.5320133,230.616603 C94.5766962,230.428936 89.7509506,235.348515 88.4640851,236.081313 C87.1772197,236.814112 93.1557822,236.041099 94.5320133,230.616603 Z" id="Shape" fill="#000000" opacity="0.1"></path>
                            <path d="M81.0914183,264.249369 C81.0914183,264.249369 73.7321564,269.012558 74.6973055,270.889237 C75.6624546,272.765916 81.0914183,264.249369 81.0914183,264.249369 Z" id="Shape" fill="#000000" opacity="0.1"></path>
                            <path d="M94.4649891,333.708827 C94.4649891,333.708827 100.720585,337.730281 110.474847,338.744582 L94.4649891,333.708827 Z" id="Shape" fill="#000000" opacity="0.1"></path>
                            <path d="M79.4247488,343.391596 C79.4247488,343.391596 85.2335166,350.683834 87.8832084,350.880438 C90.5329001,351.077043 79.4247488,343.391596 79.4247488,343.391596 Z" id="Shape" fill="#000000" opacity="0.1"></path>
                            <path d="M87.5570237,371.988607 C87.2978633,372.118187 84.2638992,378.570387 81.1673791,378.766992 C78.0708591,378.963596 87.5570237,371.988607 87.5570237,371.988607 Z" id="Shape" fill="#000000" opacity="0.1"></path>
                            <path d="M114.478428,386.121785 C114.478428,386.121785 120.233577,384.83492 121.511506,388.963613 C121.511506,388.963613 121.127233,387.67228 114.478428,386.121785 Z" id="Shape" fill="#000000" opacity="0.1"></path>
                            <path d="M110.604427,409.750065 C110.604427,409.750065 117.574948,408.329151 119.058418,410.268386 C120.541888,412.207621 110.604427,409.750065 110.604427,409.750065 Z" id="Shape" fill="#000000" opacity="0.1"></path>
                            <path d="M90.8724896,413.04319 C90.8724896,413.105746 83.7723881,414.464104 84.0538899,415.366697 C84.3353917,416.26929 91.6231612,416.13971 91.8823216,414.718796 C91.9831657,414.362126 91.9318284,413.979621 91.7405074,413.662164 C91.5491865,413.344706 91.2349604,413.120635 90.8724896,413.04319 Z" id="Shape" fill="#000000" opacity="0.1"></path>
                            <path d="M108.28092,419.173674 C108.28092,419.173674 119.943138,417.75276 119.21034,420.205847 C118.477541,422.658935 108.28092,419.173674 108.28092,419.173674 Z" id="Shape" fill="#000000" opacity="0.1"></path>
                            <path d="M47.2128973,275.482632 C47.2799215,275.674768 54.8938756,276.706942 55.926049,279.160029 C55.926049,279.160029 48.4416751,275.674768 47.2799215,275.674768" id="Shape" fill="#000000" opacity="0.1"></path>
                            <path d="M57.9278397,295.429047 C57.9278397,295.429047 51.6007511,297.430838 52.0475794,300.464802 C52.4944077,303.498766 51.4086149,299.048356 57.9278397,295.429047 Z" id="Shape" fill="#000000" opacity="0.1"></path>
                            <path d="M54.978773,310.791004 C54.978773,310.791004 57.284407,307.627459 59.4783339,308.208336 C61.6722608,308.789213 54.978773,310.791004 54.978773,310.791004 Z" id="Shape" fill="#000000" opacity="0.1"></path>
                            <path d="M91.1137769,191.626367 C90.8907683,191.841457 90.6415631,192.02761 90.3720419,192.180434 C88.5355777,193.243885 88.0440665,194.861404 87.1638148,196.76936 C86.3595239,198.498586 85.4703356,200.343987 83.8394123,201.309136 C81.7393194,202.57366 78.9689839,202.108958 76.7839936,203.217093 C74.8032576,204.255024 73.6480479,206.388806 73.8617366,208.614778 C74.003749,209.453855 74.2129418,210.280166 74.4872962,211.085739 C74.9802693,212.828863 75.2047703,214.636924 75.1530703,216.447678 C75.1596714,216.502589 75.1596714,216.558094 75.1530703,216.613005 C70.0461395,214.064963 66.8410144,208.826033 66.8975814,203.119015 C66.9541483,197.411996 70.2624881,192.237627 75.4189221,189.791314 C80.5753561,187.345001 86.6756922,188.05571 91.13165,191.621898 L91.1137769,191.626367 Z" id="Shape" fill="#000000" opacity="0.1"></path>
                            <path d="M90.7250363,187.140211 C89.0851765,183.695165 85.523955,181.519111 81.859963,180.437786 C79.0628179,179.629027 76.0288538,179.365398 73.2540501,180.254587 C71.6722779,180.759503 70.2290226,181.595072 68.7500209,182.363616 C65.9841538,183.762189 62.9412531,184.865855 60.8635016,187.162552 C60.380927,187.694278 59.9340987,188.382393 60.0770838,189.088382 C60.1843226,189.615639 60.5954046,190.017785 60.8590333,190.486955 C61.4533149,191.532533 61.3058616,192.850676 60.8992478,193.990088 C60.4926341,195.1295 59.8983525,196.192952 59.6123824,197.363642 C59.3264123,198.534332 59.4381193,199.906095 60.3049662,200.741664 C60.7237728,201.073475 61.1592529,201.38368 61.6097048,201.671067 C62.0832629,202.082876 62.4995347,202.556254 62.8474192,203.078576 L65.3094431,206.443193 C66.4673816,207.936432 67.4986664,209.523714 68.3925583,211.188509 C69.0091813,212.408351 69.4828193,213.713089 70.3005151,214.80335 C71.1182109,215.893611 72.4006081,216.769395 73.7589661,216.648751 C73.9719592,216.655914 74.1751891,216.559297 74.3040966,216.389591 C74.3574992,216.283093 74.3821442,216.164489 74.3755891,216.045533 C74.4311767,214.234596 74.2066023,212.425944 73.709815,210.683593 C73.4354605,209.878021 73.2262677,209.051709 73.0842553,208.212633 C72.8718166,205.986914 74.0266722,203.853786 76.0065124,202.814947 C78.195971,201.711281 80.9663064,202.175983 83.0663994,200.911459 C84.6973226,199.923968 85.5865109,198.09644 86.3908019,196.367215 C87.2844585,194.477131 87.7625647,192.84174 89.599029,191.778288 C91.4354933,190.714837 91.6320977,188.949865 90.7250363,187.140211 Z" id="Shape" fill="#585268"></path>
                            <path d="M84.0449533,430.876107 C84.0449533,430.876107 86.3148411,433.780491 85.7339643,435.424819 C85.1530875,437.069147 84.0449533,430.876107 84.0449533,430.876107 Z" id="Shape" fill="#000000" opacity="0.1"></path>
                            <path d="M114.907383,438.137067 C114.907383,438.137067 115.412299,434.240724 117.445368,434.204978 C119.478437,434.169232 119.576739,433.994969 121.127233,434.58925 C122.677727,435.183532 124.129919,436.112935 123.669686,436.25592 C123.209453,436.398905 120.988716,434.021778 118.754575,435.232683 C117.33518,436.004571 116.038577,436.983423 114.907383,438.137067 Z" id="Shape" fill="#000000" opacity="0.1"></path>
                            <path d="M77.2397585,231.434299 L83.6025933,226.966016 C83.6025933,226.966016 74.2594138,221.443219 73.1468113,222.2207 C72.0342089,222.998181 71.2701325,229.968702 71.2701325,229.968702 L77.2397585,231.434299 Z" id="Shape" fill="#000000" opacity="0.1"></path>
                            <path d="M77.2129488,231.143861 L83.6025933,226.568339 C83.6025933,226.568339 74.2594138,221.05001 73.1468113,221.823023 C72.0342089,222.596036 71.2701325,229.959766 71.2701325,229.959766 L77.2129488,231.143861 Z" id="Shape" fill="#E1E7EF"></path>
                            <path d="M77.2129488,231.143861 L83.6025933,226.568339 C83.6025933,226.568339 74.2594138,221.05001 73.1468113,221.823023 C72.0342089,222.596036 71.2701325,229.959766 71.2701325,229.959766 L77.2129488,231.143861 Z" id="Shape" fill="#000000" opacity="0.03"></path>
                            <path d="M74.2013261,221.876642 L74.0091899,221.77834 C73.4286846,221.48218 72.7282062,221.555731 72.2218767,221.966008 L53.0618796,237.511164 C53.0618796,237.511164 48.8974399,243.270781 49.4872533,253.21271 L60.7830725,269.222568 C60.7830725,269.222568 62.0744062,263.798072 63.6249004,264.830246 C63.6249004,264.830246 65.8188273,292.587219 63.6249004,296.590801 C61.4309735,300.594382 60.4613561,315.567598 60.4613561,315.567598 L67.883174,316.407635 C67.883174,316.407635 68.656187,306.27357 70.3988173,302.658729 C72.1414477,299.043888 73.0797871,286.622061 73.0797871,286.622061 C73.0797871,286.622061 74.6481544,268.574667 74.388994,260.822196 C74.1298335,253.069725 71.8733507,236.425371 71.8733507,236.425371 C71.8733507,236.425371 72.5033786,226.666641 74.2013261,221.876642 Z" id="Shape" fill="#6262A0"></path>
                            <path d="M93.2853624,228.601408 L85.3273505,225.652341 C85.3273505,225.652341 95.4658845,214.553126 96.7259402,220.71042 L93.2853624,228.601408 Z" id="Shape" fill="#000000" opacity="0.1"></path>
                            <path d="M93.2853624,228.203731 L85.3273505,225.259132 C85.3273505,225.259132 95.4658845,214.155449 96.7259402,220.312743 L93.2853624,228.203731 Z" id="Shape" fill="#E1E7EF"></path>
                            <path d="M93.2853624,228.203731 L85.3273505,225.259132 C85.3273505,225.259132 95.4658845,214.155449 96.7259402,220.312743 L93.2853624,228.203731 Z" id="Shape" fill="#000000" opacity="0.03"></path>
                            <path d="M93.0306703,218.772037 C93.1574558,218.749073 93.288212,218.775941 93.3956703,218.847037 L93.0306703,218.772037 Z" id="Shape" fill="#000000" opacity="0.1"></path>
                            <path d="M93.8036832,217.993704 L114.929725,222.551353 C114.929725,222.551353 120.738493,223.842687 124.93421,238.427162 C129.129928,253.011637 119.187998,270.889237 119.187998,270.889237 L116.994072,269.025963 L118.093269,311.631041 C118.093269,311.631041 108.343476,315.308438 105.246956,312.077869 C102.150436,308.847301 102.467684,293.757909 102.467684,293.757909 C102.467684,293.757909 99.5007439,265.862419 97.6240651,261.269024 C95.7473863,256.675629 96.7304085,223.632677 96.7304085,223.632677 C96.7304085,223.632677 94.9833099,217.739012 93.8036832,217.993704 Z" id="Shape" fill="#6262A0"></path>
                            <path d="M113.12007,245.142991 C112.820695,245.420025 112.476638,258.311021 113.767971,268.12337 C114.560392,274.098949 115.783415,280.009483 117.427495,285.808834 L115.510602,246.487944 C115.510602,246.487944 114.022663,244.289549 113.12007,245.142991 Z" id="Shape" fill="#000000" opacity="0.1"></path>
                            <path d="M110.537403,234.039308 C111.055724,234.361024 113.316675,239.718496 112.280033,241.916891 C111.243391,244.115286 110.537403,234.039308 110.537403,234.039308 Z" id="Shape" fill="#000000" opacity="0.1"></path>
                            <path d="M90.5999244,187.140211 C89.5652923,185.097626 87.9501519,183.406314 85.9573784,182.278719 C87.4369013,183.333806 88.632638,184.738298 89.4381708,186.367198 C90.3318274,188.176852 90.0816036,189.990975 88.3076952,191.01868 C86.5337869,192.046385 85.9797198,193.69965 85.1039364,195.607607 C84.2996455,197.336832 83.4059889,199.182233 81.7750656,200.147382 C79.6749726,201.416375 76.9091055,200.951673 74.7196469,202.050871 C72.7390884,203.091253 71.5843074,205.226008 71.7973899,207.453025 C71.937281,208.292547 72.1465172,209.11903 72.4229495,209.923985 C72.9188626,211.666443 73.1419414,213.47519 73.0842553,215.285925 C73.0919887,215.404474 73.0688981,215.523005 73.0172311,215.629983 C72.8883236,215.799689 72.6850937,215.896306 72.4721006,215.889143 C71.9251772,215.932044 71.3765898,215.830339 70.8813919,215.594236 C71.6112448,216.31626 72.6080197,216.702996 73.6338541,216.662156 C73.8468472,216.669319 74.0500772,216.572702 74.1789847,216.402995 C74.2303681,216.295806 74.2549044,216.177725 74.2504772,216.058938 C74.30386,214.248104 74.0793274,212.439788 73.584703,210.696998 C73.3082708,209.892043 73.0990346,209.06556 72.9591434,208.226038 C72.7467047,206.000319 73.9015603,203.867191 75.8814005,202.828352 C78.0708591,201.724686 80.8367262,202.189387 82.9368192,200.924863 C84.5677424,199.937373 85.461399,198.109845 86.2656899,196.38062 C87.1593465,194.490536 87.6329845,192.855144 89.4694488,191.791693 C91.3059131,190.728242 91.5025175,188.949865 90.5999244,187.140211 Z" id="Shape" fill="#000000" opacity="0.1"></path>
                            <ellipse id="Oval" fill="#6C63FF" opacity="0.1" cx="538.956152" cy="414.009863" rx="22.8222656" ry="3.13388672"></ellipse>
                            <ellipse id="Oval" fill="#6C63FF" opacity="0.1" cx="360.046289" cy="443.417188" rx="16.2205078" ry="2.2265625"></ellipse>
                            <ellipse id="Oval" fill="#6C63FF" opacity="0.1" cx="214.907812" cy="426.912793" rx="16.2205078" ry="2.2265625"></ellipse>
                            <path d="M223.841895,421.847363 C224.863816,421.014903 225.607546,419.89057 225.973828,418.624414 C226.252148,417.349707 225.706641,415.813379 224.482031,415.345801 C223.112695,414.822559 221.64873,415.774414 220.541016,416.731836 C219.433301,417.689258 218.158594,418.78584 216.711328,418.579883 C218.228332,417.201775 218.912666,415.129766 218.514844,413.119238 C218.449141,412.710401 218.276284,412.326273 218.013867,412.005957 C217.25127,411.193262 215.870801,411.543945 214.963477,412.184082 C212.068945,414.21582 211.261816,418.15127 211.245117,421.685938 C210.955664,420.41123 211.200586,419.080859 211.189453,417.789453 C211.17832,416.498047 210.827637,415.00625 209.719922,414.327148 C209.039118,413.950246 208.271434,413.758325 207.493359,413.770508 C206.196387,413.72041 204.743555,413.854004 203.858496,414.805859 C202.745215,415.985938 203.040234,417.967578 203.997656,419.258984 C204.955078,420.550391 206.419043,421.379785 207.766113,422.275977 C208.843715,422.918492 209.76267,423.79559 210.454688,424.84209 C210.538082,424.988351 210.605276,425.143271 210.655078,425.304102 L218.81543,425.304102 C220.637239,424.380603 222.32765,423.218094 223.841895,421.847363 Z" id="Shape" fill="#6C63FF"></path>
                            <path d="M548.213086,410.102246 C549.241391,409.271259 549.992692,408.147221 550.367285,406.879297 C550.645605,405.60459 550.100098,404.096094 548.875488,403.600684 C547.506152,403.077441 546.042187,404.029297 544.934473,404.986719 C543.826758,405.944141 542.552051,407.040723 541.099219,406.834766 C542.621032,405.459787 543.306283,403.384999 542.902734,401.374121 C542.842724,400.9636 542.66921,400.578012 542.401758,400.26084 C541.644727,399.448145 540.264258,399.798828 539.356934,400.438965 C536.462402,402.470703 535.655273,406.406152 535.638574,409.94082 C535.343555,408.666113 535.594043,407.335742 535.58291,406.044336 C535.571777,404.75293 535.215527,403.261133 534.113379,402.582031 C533.432575,402.205129 532.664891,402.013208 531.886816,402.025391 C530.584277,401.975293 529.137012,402.108887 528.246387,403.060742 C527.133105,404.24082 527.428125,406.222461 528.391113,407.513867 C529.354102,408.805273 530.8125,409.634668 532.15957,410.530859 C533.237172,411.173375 534.156127,412.050472 534.848145,413.096973 C534.929249,413.244368 534.99634,413.39905 535.048535,413.558984 L543.20332,413.558984 C545.019885,412.635241 546.704744,411.472689 548.213086,410.102246 Z" id="Shape" fill="#6C63FF"></path>
                            <path d="M364.449316,436.125195 C365.470926,435.291375 366.21612,434.167761 366.586816,432.902246 C366.85957,431.621973 366.314062,430.119043 365.09502,429.623633 C363.725684,429.100391 362.261719,430.04668 361.154004,431.009668 C360.046289,431.972656 358.771582,433.058105 357.31875,432.857715 C358.838633,431.481479 359.523515,429.407809 359.122266,427.39707 C359.059195,426.987449 358.886038,426.602655 358.621289,426.283789 C357.858691,425.471094 356.483789,425.821777 355.570898,426.461914 C352.676367,428.499219 351.869238,432.429102 351.852539,435.969336 C351.563086,434.694629 351.808008,433.364258 351.802441,432.072852 C351.796875,430.781445 351.435059,429.289648 350.33291,428.610547 C349.651443,428.235333 348.884214,428.043526 348.106348,428.053906 C346.803809,428.009375 345.356543,428.137402 344.465918,429.089258 C343.352637,430.274902 343.647656,432.256543 344.610645,433.542383 C345.573633,434.828223 347.032031,435.657617 348.373535,436.559375 C349.465466,437.209683 350.394535,438.100676 351.089941,439.164453 C351.170045,439.310406 351.237103,439.463147 351.290332,439.620898 L359.439551,439.620898 C361.259527,438.687005 362.944743,437.511099 364.449316,436.125195 Z" id="Shape" fill="#6C63FF"></path>
                            <path d="M508.758095,231.315989 C502.817145,231.198257 497.573531,226.987065 494.603056,221.879297 C493.824994,220.659326 493.335603,219.277881 493.172157,217.840175 C493.192945,217.512411 493.247574,217.187674 493.335171,216.871148 C493.525876,216.392176 493.677313,215.898489 493.787987,215.394967 C493.8129,215.193476 493.8129,214.989684 493.787987,214.788193 C493.787987,214.788193 493.787987,214.788193 493.787987,214.761024 C493.932888,213.665209 493.289889,212.610147 492.483876,211.853943 C491.677863,211.09774 490.695251,210.549832 489.866597,209.820798 C487.312713,207.579357 486.538397,203.983996 486.488588,200.560704 C486.488588,200.501838 486.488588,200.442972 486.488588,200.379578 C486.515757,198.916981 486.633489,197.445328 486.619904,195.978203 C486.640317,195.145028 486.604007,194.311429 486.511228,193.483185 C486.266708,191.409286 485.478807,189.299162 483.848668,187.976938 C479.596723,184.531006 472.446753,188.117311 468.049907,184.857034 C466.976732,184.064605 466.111853,182.882754 464.816798,182.592952 C463.834186,182.357487 462.81535,182.674459 461.859907,182.99143 C458.617742,184.060077 455.004268,185.468336 453.736382,188.619937 C453.011876,190.431203 453.215643,192.464348 452.550003,194.28467 C452.097187,195.502746 451.295702,196.548751 450.697985,197.707961 C450.205086,198.57713 449.96511,199.566834 450.005176,200.565232 C449.954957,201.082077 450.02789,201.603467 450.217999,202.086695 C450.441927,202.663848 450.802393,203.178133 451.268533,203.585517 C451.098095,203.9447 450.885266,204.282186 450.63459,204.590769 C449.805936,205.605078 448.533523,206.329584 447.673172,207.307667 C446.079258,209.155158 446.138124,211.668289 446.926025,213.841807 C447.713925,216.015325 449.126712,217.994133 450.095739,220.108785 C450.516858,221.014418 450.85647,222.055895 450.417238,222.970584 C450.113852,223.604527 449.479909,224.084513 448.986339,224.63242 C448.263403,225.443554 447.810794,226.459551 447.691284,227.539501 C437.98743,229.753773 437.982902,237.546742 437.982902,237.546742 L432.748345,250.74181 C432.748345,250.74181 431.910635,252.96061 430.93708,255.890332 L424.733496,254.780932 L429.017139,261.998824 C428.197541,264.937602 427.622464,267.663556 427.812647,269.031062 C427.812647,269.031062 425.888178,278.087388 429.311469,279.667717 L436.873502,283.068368 C437.199804,283.266467 437.551759,283.418828 437.919508,283.521184 L438.227423,283.657029 C438.450189,283.766389 438.71105,283.766389 438.933816,283.657029 L438.97457,283.657029 L439.056077,283.657029 C439.209918,283.672677 439.365263,283.650929 439.508893,283.593635 C439.678729,283.504749 439.811804,283.358848 439.884731,283.181572 C439.886435,283.168041 439.886435,283.15435 439.884731,283.140819 L442.148812,282.484235 L444.068754,284.748317 C444.933633,285.355091 445.780399,285.884886 446.609053,286.360343 L443.656691,315.883968 C443.656691,315.883968 443.176705,355.125031 441.732221,364.059097 C441.19337,367.369185 441.188842,369.62421 441.392609,371.159257 L441.338271,371.258877 C441.695996,373.781064 442.624269,374.279162 442.624269,374.279162 L442.624269,374.242937 L442.678607,374.279162 C443.115997,373.134016 443.635052,372.021756 444.231767,370.950962 C444.231767,371.159257 444.231767,371.372081 444.231767,371.593961 C444.204598,374.926689 444.100451,379.586169 443.778951,382.615511 C443.19029,387.768561 445.277773,404.839736 445.277773,404.839736 L445.997751,420.371337 C446.11458,423.006349 445.503587,425.622652 444.231767,427.933369 C442.52465,431.035161 440.301322,435.395782 440.15642,437.329308 C440.149775,437.434861 440.149775,437.540727 440.15642,437.64628 L436.370876,442.052183 C436.370876,442.052183 434.921864,444.284567 438.182141,445.185672 C439.93454,445.674713 442.963882,445.185672 445.390977,444.610595 C447.576399,444.109046 449.12694,442.166177 449.13124,439.923946 C449.756568,437.784543 450.806906,435.793213 452.219448,434.069031 L452.83075,437.641751 L456.906097,438.651532 L457.426835,428.857115 C457.638489,428.306001 457.734066,427.717121 457.707581,427.127356 C458.509066,420.163041 455.819337,420.787928 455.819337,420.787928 C455.887626,420.853679 455.933556,420.939205 455.950654,421.032448 C455.905372,420.95547 455.860091,420.873963 455.819337,420.792456 C454.166558,417.532178 454.977099,412.188945 454.977099,412.188945 C454.977099,412.188945 457.11892,396.666401 457.870595,392.568414 C458.40039,389.674917 458.183039,380.192943 458.00644,374.881408 C458.00644,374.659528 458.00644,374.428591 457.983799,374.242937 C464.291531,374.16143 472.021106,373.944078 477.454902,373.418811 L477.454902,374.06181 L476.449649,410.739933 C476.382138,413.077 475.908682,415.38452 475.050447,417.559347 C475.050447,417.600101 475.014222,417.640854 475.000637,417.681608 C473.798353,420.745775 473.112838,423.988202 472.97202,427.276786 L472.519204,438.932278 L472.519204,439.253778 C471.708662,439.566221 470.43172,440.467325 470.395495,443.080076 C470.341157,446.906374 477.083592,445.629432 477.083592,445.629432 C483.826028,445.629432 483.875837,438.610778 483.875837,438.610778 C483.875837,438.610778 484.093189,432.176258 484.410161,427.869975 C484.727132,423.563692 483.395852,424.514606 483.395852,424.514606 L483.296232,436.740647 C483.296232,436.772344 483.296232,436.804041 483.296232,436.835738 L483.296232,426.099463 L483.40038,424.541775 L483.40038,424.496493 L483.423021,424.165937 L484.260731,411.532362 C484.260731,411.532362 490.468843,390.476402 491.433342,386.437281 C492.117095,383.570953 491.83182,374.922161 491.605412,370.135893 C491.605412,369.914013 491.605412,369.705717 491.578243,369.50195 C493.498184,369.329879 495.200774,369.311767 495.884526,369.311767 L496.19697,369.311767 C496.19697,369.311767 495.87547,335.495443 495.073985,322.735079 C494.2725,309.974715 492.986502,298.328278 489.771506,294.818952 C487.833452,292.699771 485.130139,286.152047 483.291704,281.302384 C487.125793,282.962881 491.104765,284.266468 495.178133,285.196605 C505.348388,287.324842 503.958242,278.494923 503.958242,278.494923 L502.92582,261.799585 L502.993743,261.799585 C502.956674,257.42557 502.581226,253.060979 501.870758,248.74489 C501.336435,245.434803 500.512309,242.011511 499.25348,239.235747 C500.358352,238.814628 501.445111,238.330114 502.513758,237.877298 C505.275937,236.659222 508.40037,234.929464 508.789792,231.949932 L508.653947,231.949932 C508.705,231.741628 508.739821,231.529678 508.758095,231.315989 Z M445.717005,255.469213 C445.744174,257.194443 445.676251,260.183031 445.576632,263.493118 L442.348051,259.182306 L445.585688,253.929637 L445.717005,255.469213 Z M490.346583,270.733651 L484.967125,269.003893 C485.922082,267.516495 487.036576,266.137802 488.290797,264.89232 L488.743613,264.439504 L488.576071,264.475729 L488.838704,264.240265 L488.992662,264.20404 L488.743613,264.439504 L489.037944,264.380638 C489.362854,265.732078 489.989865,266.992292 490.87185,268.066563 C492.791791,270.203856 490.32847,270.733651 490.32847,270.733651 L490.346583,270.733651 Z" id="Shape" fill="url(#linearGradient-5)"></path>
                            <polygon id="Shape" fill="#A27772" points="457.648715 425.931921 457.014772 437.859103 453.00282 436.858379 452.156053 431.895512"></polygon>
                            <polygon id="Shape" fill="#000000" opacity="0.1" points="457.648715 425.931921 457.014772 437.859103 453.00282 436.858379 452.156053 431.895512"></polygon>
                            <path d="M472.374302,439.44396 L478.496379,440.711846 L483.024543,436.699893 L483.024543,425.402126 L483.124162,423.858022 L483.124162,423.812741 L483.146803,423.486713 L483.970929,410.9437 C483.970929,410.9437 490.093006,390.03717 491.04392,386.038802 C491.718616,383.190587 491.43787,374.600662 491.21599,369.855146 C491.125427,367.908036 491.04392,366.608453 491.04392,366.608453 L477.531881,363.334591 L477.246606,373.749367 L476.259467,410.1558 C476.192102,412.475433 475.723294,414.76585 474.873849,416.925404 L474.828567,417.047665 C473.651929,420.097647 472.989371,423.321686 472.867872,426.588505 L472.415056,438.157962 L472.415056,438.479462 L472.374302,439.44396 Z" id="Shape" fill="#EFB7B9"></path>
                            <polygon id="Shape" fill="#000000" opacity="0.1" points="483.142275 423.491713 483.142275 423.846713 483.142275 423.846713 483.167275 423.486713"></polygon>
                            <path d="M472.374302,439.44396 L478.496379,440.711846 L483.024543,436.699893 L483.024543,435.739923 C482.996339,436.173537 482.751069,436.563583 482.372487,436.776872 L482.309093,436.813098 C480.20043,437.929612 477.8102,438.40199 475.435341,438.171547 L473.044471,437.967779 C472.828883,437.991622 472.617308,438.043374 472.415056,438.121737 L472.415056,438.443236 L472.374302,439.44396 Z" id="Shape" fill="#000000" opacity="0.1"></path>
                            <path d="M482.322677,437.130069 L482.386072,437.093844 C482.792781,436.866684 483.04418,436.436704 483.042655,435.970859 L483.142275,423.808212 C483.142275,423.808212 484.464499,422.870883 484.147527,427.145469 C483.830556,431.420055 483.617732,437.809294 483.617732,437.809294 C483.617732,437.809294 483.567922,444.778137 476.91605,444.778137 C476.91605,444.778137 470.264178,446.041494 470.313988,442.242365 C470.363798,438.443236 473.062583,438.284751 473.062583,438.284751 L475.448925,438.493046 C477.824085,438.719155 480.213501,438.245365 482.322677,437.130069 Z" id="Shape" fill="#B07473"></path>
                            <path d="M440.491504,436.858379 C440.64999,439.602446 448.723705,438.017589 448.723705,438.017589 L454.157501,427.46244 C454.157501,427.46244 458.685665,423.975755 456.421583,420.914716 C456.298454,420.748766 456.186512,420.574802 456.086499,420.393977 L456.086499,420.366808 C456.036689,420.285301 455.995936,420.203794 455.950654,420.117759 C454.320515,416.884651 455.122,411.582171 455.122,411.582171 C455.122,411.582171 457.232124,396.186416 457.974743,392.111069 C458.495482,389.235685 458.282658,379.821634 458.10606,374.550852 C458.038137,372.363749 457.974743,370.887568 457.974743,370.887568 L444.562323,367.301262 C444.562323,367.301262 444.562323,368.972155 444.562323,371.299631 C444.535154,374.60519 444.435535,379.232973 444.109507,382.239673 C443.529902,387.361026 445.590216,404.305413 445.590216,404.305413 L446.301138,419.728337 C446.402415,422.339031 445.786977,424.927626 444.52157,427.213391 C442.837093,430.292542 440.645462,434.625995 440.491504,436.545936 C440.482505,436.649889 440.482505,436.754426 440.491504,436.858379 Z" id="Shape" fill="#EFB7B9"></path>
                            <path d="M440.491504,436.858379 C440.64999,439.602446 448.723705,438.017589 448.723705,438.017589 L454.157501,427.46244 C454.157501,427.46244 458.685665,423.975755 456.421583,420.914716 C456.298454,420.748766 456.186512,420.574802 456.086499,420.393977 C456.014048,421.992419 454.275234,425.981731 454.275234,425.981731 C454.275234,425.981731 449.787824,434.961079 448.388621,437.016865 C446.989419,439.072651 440.758666,436.636499 440.52773,436.564049 C440.50763,436.661004 440.495514,436.759444 440.491504,436.858379 Z" id="Shape" fill="#000000" opacity="0.1"></path>
                            <path d="M455.941598,420.108703 C455.941598,420.108703 458.595101,419.492873 457.807201,426.407378 C457.865779,428.007497 457.062154,429.516238 455.701605,430.360465 C453.804305,431.5559 450.870055,434.123369 449.389345,439.117933 C449.391665,441.338539 447.864932,443.268525 445.70342,443.777413 C443.308022,444.334377 440.319434,444.827947 438.589676,444.343433 C435.370152,443.437801 436.778411,441.232585 436.778411,441.232585 L440.473392,436.849323 C440.473392,436.849323 446.91244,439.385094 448.338812,437.32478 C449.765183,435.264466 454.225424,426.289646 454.225424,426.289646 C454.225424,426.289646 456.747611,420.688308 455.941598,420.108703 Z" id="Shape" fill="#B07473"></path>
                            <path d="M477.549993,364.588892 L477.264719,375.003668 C480.88725,374.655 483.441134,374.165958 483.884894,373.482205 C484.83128,372.010552 488.290797,371.385666 491.234103,371.132088 C491.143539,369.184978 491.062033,367.885395 491.062033,367.885395 L477.549993,364.588892 Z" id="Shape" fill="#000000" opacity="0.1"></path>
                            <path d="M444.548739,372.549404 C444.896104,371.847163 445.403238,371.236121 446.029448,370.765307 C447.45582,369.972879 447.301862,375.832322 447.301862,375.832322 C447.301862,375.832322 452.033793,375.877604 458.097004,375.800625 C458.029081,373.608994 457.965687,372.137341 457.965687,372.137341 L444.553267,368.551035 C444.553267,368.551035 444.57138,370.221928 444.548739,372.549404 Z" id="Shape" fill="#000000" opacity="0.1"></path>
                            <path d="M443.022748,373.944078 C443.022748,373.944078 444.607605,369.655907 446.029448,368.868007 C447.451292,368.080106 447.301862,373.935022 447.301862,373.935022 C447.301862,373.935022 482.141551,374.251993 483.884894,371.557736 C485.628237,368.863479 495.762266,369.026493 495.762266,369.026493 C495.762266,369.026493 495.445295,335.450161 494.652866,322.78036 C493.860437,310.110559 492.592552,298.550158 489.427366,295.068001 C487.376108,292.803919 484.446386,285.518104 482.66229,280.654857 C481.679678,277.996825 481.032151,276.063299 481.032151,276.063299 L447.777319,277.965128 L447.505629,280.654857 L443.973662,315.974531 C443.973662,315.974531 443.520846,354.916736 442.071833,363.800992 C440.622821,372.685249 443.022748,373.944078 443.022748,373.944078 Z" id="Shape" fill="#65617D"></path>
                            <g id="Group" opacity="0.1" transform="translate(441.474116, 276.072356)" fill="#000000">
                                <path d="M39.7255769,95.5080209 C41.4643916,92.8182919 51.6029493,92.9767776 51.6029493,92.9767776 C51.6029493,92.9767776 51.2859779,59.4004466 50.4935493,46.7306456 C49.7011207,34.0608446 48.433235,22.5004436 45.2680488,19.018286 C43.2167908,16.7542043 40.2870691,9.46838952 38.5029728,4.60514211 C37.6788471,2.37275758 37.0901858,0.652055519 36.9226438,0.158485717 L39.5036969,0.01358449 C39.5036969,0.01358449 40.1512242,1.94711023 41.1338357,4.60514211 C42.945101,9.46838952 45.8476537,16.7632606 47.8989117,19.018286 C51.068626,22.5004436 52.3319836,34.0608446 53.1244122,46.7306456 C53.9168408,59.4004466 54.2156995,92.9541368 54.2156995,92.9541368 C54.2156995,92.9541368 44.08167,92.7911229 42.3428553,95.5080209 C40.8530896,97.8083279 15.2146288,97.9124757 7.77032827,97.894363 C17.3156966,97.8490814 38.3671279,97.5638071 39.7255769,95.5080209 Z" id="Shape"></path>
                                <path d="M1.85654696,92.7911229 C2.49954616,92.433398 2.82104575,93.4250658 2.97953147,94.6023883 C2.40517231,95.6469584 1.90435033,96.7303075 1.48070941,97.8445532 C1.48070941,97.8445532 0.575076743,97.3509834 0.212823676,94.8469091 C0.715449806,93.9548609 1.29958288,93.1035662 1.85654696,92.7911229 Z" id="Shape"></path>
                            </g>
                            <path d="M453.29715,194.828049 C450.996843,197.970595 453.324319,202.430835 450.85647,205.482818 C450.041401,206.492598 448.7871,207.212576 447.935805,208.199716 C446.360004,210.03815 446.423398,212.52864 447.197714,214.688574 C447.97203,216.848508 449.371233,218.809202 450.331203,220.91027 C450.747794,221.815903 451.082879,222.843796 450.652703,223.749428 C450.353844,224.378843 449.74707,224.8543 449.239916,225.402208 C447.655059,227.17272 447.609777,229.636041 448.461072,231.718996 C449.312367,233.801951 450.947034,235.608688 452.536419,237.365616 C453.170362,238.062953 453.971847,238.828212 455.026909,238.8101 C455.582755,238.764961 456.11984,238.588003 456.593653,238.293889 C460.349654,236.316365 463.199088,232.967429 464.549636,228.943232 C465.69122,225.157407 465.450493,221.089117 463.870412,217.464338 C462.511963,214.262926 460.302219,211.192832 460.284106,207.805765 C460.284106,205.120565 461.665196,202.557624 461.909717,199.88148 C462.208576,196.634786 460.284106,191.47268 456.362717,190.055365 C456.620822,192.151905 454.483529,193.234136 453.29715,194.828049 Z" id="Shape" fill="#585268"></path>
                            <path d="M453.29715,194.828049 C450.996843,197.970595 453.324319,202.430835 450.85647,205.482818 C450.041401,206.492598 448.7871,207.212576 447.935805,208.199716 C446.360004,210.03815 446.423398,212.52864 447.197714,214.688574 C447.97203,216.848508 449.371233,218.809202 450.331203,220.91027 C450.747794,221.815903 451.082879,222.843796 450.652703,223.749428 C450.353844,224.378843 449.74707,224.8543 449.239916,225.402208 C447.655059,227.17272 447.609777,229.636041 448.461072,231.718996 C449.312367,233.801951 450.947034,235.608688 452.536419,237.365616 C453.170362,238.062953 453.971847,238.828212 455.026909,238.8101 C455.582755,238.764961 456.11984,238.588003 456.593653,238.293889 C460.349654,236.316365 463.199088,232.967429 464.549636,228.943232 C465.69122,225.157407 465.450493,221.089117 463.870412,217.464338 C462.511963,214.262926 460.302219,211.192832 460.284106,207.805765 C460.284106,205.120565 461.665196,202.557624 461.909717,199.88148 C462.208576,196.634786 460.284106,191.47268 456.362717,190.055365 C456.620822,192.151905 454.483529,193.234136 453.29715,194.828049 Z" id="Shape" fill="#000000" opacity="0.1"></path>
                            <path d="M478.831463,308.992103 C474.221793,309.236624 469.883813,311.215431 465.849219,313.456872 C461.814626,315.698313 457.911349,318.256725 453.56884,319.832526" id="Shape" fill="#000000" opacity="0.1"></path>
                            <path d="M475.965136,319.850639 C471.40468,320.288195 467.154435,322.35384 463.992672,325.669329 C462.874216,326.855707 461.909717,328.186987 460.741451,329.323556 C458.950524,331.063781 456.74026,332.311636 454.325043,332.946087" id="Shape" fill="#000000" opacity="0.1"></path>
                            <path d="M476.911522,328.110009 C473.235242,329.130154 469.907834,331.135994 467.289175,333.910586 C466.582782,334.671317 465.930726,335.490915 465.233389,336.247118 C461.416147,340.322465 456.027633,342.518624 450.824773,344.574411" id="Shape" fill="#000000" opacity="0.1"></path>
                            <path d="M476.517572,213.506723 C476.620718,217.189882 476.938227,220.863912 477.468486,224.51016 C477.894134,227.109326 478.500907,229.423217 479.370315,230.45111 C481.901558,233.462339 467.017485,237.50146 467.017485,237.50146 L458.22832,230.709215 C458.22832,230.709215 465.197164,224.292808 461.95047,218.030358 C458.703777,211.767908 476.517572,213.506723 476.517572,213.506723 Z" id="Shape" fill="#EFB7B9"></path>
                            <path d="M447.505629,280.654857 L482.66229,280.654857 C481.679678,277.996825 481.032151,276.063299 481.032151,276.063299 L447.777319,277.965128 L447.505629,280.654857 Z" id="Shape" fill="#000000" opacity="0.1"></path>
                            <path d="M445.241548,280.020914 L482.825303,280.020914 C481.770241,276.244426 482.825303,272.744156 484.333182,270.058955 C485.3869,268.172371 486.712791,266.451306 488.268156,264.951187 L488.526261,264.72025 L501.657935,261.808641 L502.364328,261.654684 C502.364328,261.654684 502.468476,237.795791 494.023451,234.521929 C485.578427,231.248067 480.506884,226.824051 480.506884,226.824051 L468.896673,230.410357 L460.342973,226.085961 C457.598906,229.042851 450.313091,227.897226 450.313091,227.897226 C438.38138,229.255675 438.38138,238.244079 438.38138,238.244079 C438.38138,238.244079 445.350224,254.504714 445.880019,254.504714 C446.409814,254.504714 445.241548,280.020914 445.241548,280.020914 Z" id="Shape" fill="#6262A0"></path>
                            <path d="M458.219264,264.851567 C458.219264,264.851567 450.553083,263.153506 447.944861,260.183031" id="Shape" fill="#000000" opacity="0.1"></path>
                            <path d="M496.867138,255.949198 L487.991938,263.235013 C488.05636,263.810845 488.154641,264.382383 488.286268,264.946658 L488.544374,264.715722 L501.676047,261.804113 L496.867138,255.949198 Z" id="Shape" fill="#000000" opacity="0.1"></path>
                            <path d="M472.795422,277.489671 C472.795422,277.489671 474.742532,278.585486 477.722063,280.020914 L482.829832,280.020914 C481.77477,276.244426 482.829832,272.744156 484.33771,270.058955 L475.31308,267.138289 C478.392232,269.991032 472.795422,277.489671 472.795422,277.489671 Z" id="Shape" fill="#000000" opacity="0.1"></path>
                            <path d="M443.656691,235.364167 L438.376852,238.212382 L433.201162,251.303302 C433.201162,251.303302 427.817175,265.662108 428.342442,269.465765 C428.342442,269.465765 426.445142,278.436057 429.823152,280.020914 L438.634958,284.005698 C438.953212,284.150115 439.328117,284.075563 439.566908,283.820374 C439.805699,283.565185 439.855224,283.186162 439.69002,282.878185 C438.435718,280.500899 437.059157,276.787806 439.237203,274.727491 L436.701432,269.452181 L445.880019,254.473017 L448.936529,249.319967 L443.656691,235.364167 Z" id="Shape" fill="#6262A0"></path>
                            <path d="M455.389162,261.853923 C455.841978,263.719526 457.39061,266.585854 462.498378,267.668085 L468.122357,272.259642 L474.085948,274.97654 L476.513044,276.076884 L477.545465,268.632583 L475.204405,267.351113 L472.487507,265.861347 C472.487507,265.861347 466.333733,254.703953 456.584597,259.417771 C455.662072,259.846906 455.16412,260.86167 455.389162,261.853923 Z" id="Shape" fill="#000000" opacity="0.1"></path>
                            <path d="M455.710661,261.21998 C456.163478,263.085583 457.71211,265.951911 462.819878,267.034142 L468.443857,271.630227 L474.407448,274.347125 L476.834543,275.447469 L477.866965,268.003169 L475.525904,266.726227 L472.809006,265.231933 C472.809006,265.231933 466.655232,254.079066 456.906097,258.788356 C455.985548,259.2171 455.487979,260.229201 455.710661,261.21998 Z" id="Shape" fill="#EFB7B9"></path>
                            <circle id="Oval" fill="#000000" opacity="0.1" cx="466.695986" cy="209.549108" r="13.6207153"></circle>
                            <circle id="Oval" fill="#EFB7B9" cx="466.695986" cy="209.232137" r="13.6207153"></circle>
                            <path d="M475.131954,238.330114 L471.056607,230.369603 C471.056607,230.369603 477.051895,227.951564 477.486599,225.144103 C477.921303,222.336641 483.22831,228.431549 482.078156,230.45111 C480.928003,232.470671 475.131954,238.330114 475.131954,238.330114 Z" id="Shape" fill="#000000" opacity="0.1"></path>
                            <path d="M475.131954,237.696171 L471.056607,229.73566 C471.056607,229.73566 477.051895,227.317621 477.486599,224.51016 C477.921303,221.702699 483.22831,227.802135 482.078156,229.817167 C480.928003,231.8322 475.131954,237.696171 475.131954,237.696171 Z" id="Shape" fill="#67647E"></path>
                            <path d="M441.619017,258.254033 L464.259834,288.678762 C464.259834,288.678762 455.918957,293.206926 444.408366,285.087929 L439.427386,279.178676 L425.276876,255.315255 L441.619017,258.254033 Z" id="Shape" fill="#F6F8FB"></path>
                            <path d="M437.163304,274.795414 L439.223619,274.741076 C439.223619,274.741076 451.811913,262.515035 454.90012,268.700506 C457.988328,274.885977 447.061869,280.654857 447.061869,280.654857 L443.738198,282.466122 L439.382104,283.734008 L436.610869,280.011858 L437.163304,274.795414 Z" id="Shape" fill="#EFB7B9"></path>
                            <path d="M440.201702,281.397476 C440.391885,282.099341 440.573011,282.873657 440.25604,283.525713 C440.182889,283.701723 440.049728,283.846115 439.880202,283.933247 C439.73717,283.992761 439.581263,284.014588 439.427386,283.996642 C438.33689,283.903421 437.322304,283.400174 436.588228,282.588383 C435.863716,281.782423 435.244445,280.887752 434.745265,279.925823 C434.183773,278.952268 433.59964,277.865508 433.803407,276.756108 C434.025287,275.542561 435.107518,274.700322 436.13994,274.03921 C438.227423,272.658121 438.277233,274.265619 438.75269,276.040659 L440.201702,281.397476 Z" id="Shape" fill="#000000" opacity="0.1"></path>
                            <path d="M439.884731,281.397476 C440.074913,282.099341 440.25604,282.873657 439.939069,283.525713 C439.865917,283.701723 439.732756,283.846115 439.563231,283.933247 C439.420199,283.992761 439.264291,284.014588 439.110415,283.996642 C438.019918,283.903421 437.005333,283.400174 436.271256,282.588383 C435.546745,281.782423 434.927474,280.887752 434.428294,279.925823 C433.866802,278.952268 433.282668,277.865508 433.486436,276.756108 C433.708316,275.542561 434.790547,274.700322 435.822968,274.03921 C437.910451,272.658121 437.960261,274.265619 438.435718,276.040659 L439.884731,281.397476 Z" id="Shape" fill="#67647E"></path>
                            <polygon id="Shape" fill="#000000" opacity="0.1" points="445.875491 254.473017 446.930553 252.693448 446.006807 255.999008"></polygon>
                            <path d="M474.407448,274.329013 L476.834543,275.429357 L477.866965,267.985056 L475.525904,266.708114 C477.124346,268.546548 475.725143,271.960783 474.407448,274.329013 Z" id="Shape" fill="#000000" opacity="0.1"></path>
                            <path d="M484.147527,265.689277 C484.147527,265.689277 476.309276,266.164734 472.985605,264.027441" id="Shape" fill="#000000" opacity="0.1"></path>
                            <g id="Group" opacity="0.1" transform="translate(449.624810, 226.715375)" fill="#000000">
                                <path d="M33.5491621,43.9729941 C34.6055836,42.0869822 35.9328717,40.3660845 37.4886642,38.8652259 C37.8618527,38.6305968 38.2489712,38.4188914 38.647874,38.231283 L50.873915,35.7226805 L51.5803085,35.568723 C51.5803085,35.568723 51.6889844,11.7098304 43.2394316,8.43596828 C38.5043627,6.63008735 34.0648072,4.12873583 30.0670045,1.01430859 L30.995278,0.729034296 C30.995278,0.729034296 36.0622928,5.1621062 44.5073174,8.42691196 C52.952342,11.6917177 52.8572505,35.568723 52.8572505,35.568723 L51.5893648,35.568723 L39.0735214,37.9641214 L38.3671279,38.6388177 C36.7978444,40.2081723 35.4523908,41.9863652 34.3687597,43.9231843 C32.7167675,46.9945752 32.3409779,50.5930453 33.3227539,53.9394816 L32.0276992,53.9394816 C30.9862217,50.1629934 32.0593964,46.6627231 33.5491621,43.9729941 Z" id="Shape"></path>
                                <path d="M0.181126533,1.87409635 C0.384893883,1.84409635 0.579604906,1.80909635 0.787900419,1.78409635 C1.64489966,1.91777571 2.50822109,1.99624183 3.37348168,2.01909635 C2.30761226,2.05145443 1.2409882,2.00300729 0.181126533,1.87409635 Z" id="Shape"></path>
                                <path d="M18.103597,4.31533965 L10.369494,0.416591026 C10.5299786,0.29010749 10.6812965,0.152408189 10.8223104,0.00452816333 L18.8914974,4.07987516 L18.103597,4.31533965 Z" id="Shape"></path>
                            </g>
                            <path d="M497.184109,255.315255 L502.3598,261.654684 L503.414862,278.861704 C503.414862,278.861704 504.773311,287.6237 494.757014,285.513576 C484.740717,283.403452 473.112393,276.855728 473.112393,276.855728 C473.112393,276.855728 478.709203,269.357089 475.648165,266.508875 L490.00697,271.15477 C490.00697,271.15477 492.434066,270.624975 490.532237,268.514851 C488.630409,266.404727 488.295325,262.60107 488.295325,262.60107 L497.184109,255.315255 Z" id="Shape" fill="#6262A0"></path>
                            <path d="M499.507057,273.477718 L502.3598,276.747052 C500.86385,276.289508 499.757731,275.02186 499.507057,273.477718 Z" id="Shape" fill="#000000" opacity="0.1"></path>
                            <polygon id="Shape" fill="#000000" opacity="0.1" points="494.652866 272.947923 499.085938 278.648881 496.871666 279.178676"></polygon>
                            <path d="M450.435351,202.978743 C449.94631,201.787836 450.317619,200.411275 450.888167,199.265649 C451.458716,198.120024 452.278314,197.078546 452.699433,195.864999 C453.356016,194.053733 453.152249,192.025116 453.867699,190.24102 C455.122,187.116587 458.685665,185.712856 461.882548,184.657794 C462.824406,184.345351 463.829658,184.02838 464.798685,184.259316 C466.075627,184.567231 466.93145,185.740025 467.9684,186.523398 C472.30638,189.756506 479.35673,186.19737 483.54981,189.620661 C485.157308,190.929301 485.936152,193.030368 486.176144,195.086155 C486.416137,197.141941 486.176144,199.229424 486.153503,201.303323 C486.085581,204.925853 486.760277,208.901581 489.481704,211.306036 C490.301301,212.030542 491.2658,212.57845 492.062757,213.325596 C492.859713,214.072743 493.489128,215.136862 493.348755,216.210037 C493.236087,216.708604 493.084689,217.19762 492.895939,217.672633 C492.352559,219.565406 493.158572,221.571382 494.141184,223.278499 C497.075433,228.350042 502.242068,232.529537 508.106039,232.647269 C507.712089,235.60416 504.641994,237.320334 501.91604,238.533882 C498.442939,240.077985 494.793239,241.59492 490.998638,241.400209 C487.204037,241.205498 483.246423,238.778403 482.571726,235.06078 C482.34079,233.77931 482.372487,232.208038 481.258559,231.533341 C480.588391,231.125807 479.718983,231.229954 478.994477,230.922039 C477.948472,230.469223 477.427733,229.319069 477.083592,228.23231 C476.376568,225.998499 475.996789,223.674066 475.95608,221.331389 C475.910798,218.555625 476.282107,215.526284 474.706307,213.239561 C473.248238,211.124909 470.658129,210.069847 468.97818,208.104624 C467.429548,206.293359 465.740543,204.128897 463.200244,203.784756 C459.786008,203.291187 452.513778,208.068399 450.435351,202.978743 Z" id="Shape" fill="#000000" opacity="0.1"></path>
                            <path d="M450.435351,202.3448 C449.94631,201.153893 450.317619,199.777332 450.888167,198.631706 C451.458716,197.486081 452.278314,196.444604 452.699433,195.231056 C453.356016,193.41979 453.152249,191.391173 453.867699,189.607077 C455.122,186.482644 458.685665,185.078914 461.882548,184.023852 C462.824406,183.711408 463.829658,183.394437 464.798685,183.625373 C466.075627,183.933288 466.93145,185.106083 467.9684,185.889455 C472.30638,189.127092 479.35673,185.563427 483.54981,188.986719 C485.157308,190.299886 485.936152,192.396426 486.176144,194.452212 C486.416137,196.507998 486.176144,198.595481 486.153503,200.66938 C486.085581,204.291911 486.760277,208.267638 489.481704,210.672093 C490.301301,211.396599 491.2658,211.944507 492.062757,212.691654 C492.859713,213.438801 493.489128,214.502919 493.348755,215.576094 C493.235474,216.075973 493.084093,216.566448 492.895939,217.043219 C492.352559,218.931463 493.158572,220.941967 494.141184,222.644557 C497.075433,227.7161 502.242068,231.895594 508.106039,232.013327 C507.712089,234.970217 504.641994,236.686391 501.91604,237.899939 C498.442939,239.448571 494.793239,240.960977 490.998638,240.766266 C487.204037,240.571555 483.246423,238.14446 482.571726,234.404197 C482.34079,233.122727 482.372487,231.551454 481.258559,230.876758 C480.588391,230.469223 479.718983,230.573371 478.994477,230.265455 C477.948472,229.812639 477.427733,228.662486 477.083592,227.575726 C476.376568,225.341916 475.996789,223.017483 475.95608,220.674806 C475.910798,217.899041 476.282107,214.8697 474.706307,212.582978 C473.248238,210.468325 470.658129,209.413263 468.97818,207.44804 C467.429548,205.636775 465.740543,203.472313 463.200244,203.128173 C459.786008,202.679884 452.513778,207.434456 450.435351,202.3448 Z" id="Shape" fill="#585268"></path>
                            <path d="M460.089395,237.342975 L467.895949,231.003546 C467.895949,231.003546 462.552716,228.105522 461.914245,225.633144 C461.275774,223.160767 457.001188,226.805939 457.435892,229.024739 C457.870595,231.243539 460.089395,237.342975 460.089395,237.342975 Z" id="Shape" fill="#000000" opacity="0.1"></path>
                            <path d="M460.406367,236.39206 L468.21292,230.052632 C468.21292,230.052632 462.869688,227.154607 462.231217,224.68223 C461.592746,222.209853 457.318159,225.855024 457.752863,228.073824 C458.187567,230.292624 460.406367,236.39206 460.406367,236.39206 Z" id="Shape" fill="#67647E"></path>
                            <circle id="Oval" fill="#000000" opacity="0.1" cx="468.516307" cy="235.359639" r="1"></circle>
                            <circle id="Oval" fill="#000000" opacity="0.1" cx="468.516307" cy="238.8101" r="1"></circle>
                            <circle id="Oval" fill="#000000" opacity="0.1" cx="468.516307" cy="242.256032" r="1"></circle>
                            <g id="Group" opacity="0.1" transform="translate(449.888672, 129.160156)" fill="#000000">
                                <path d="M10.302832,6.54052734 C11.0598633,4.453125 10.8984375,2.11523438 11.6053711,0.0166992187 C11.2811341,0.482060699 11.0103821,0.982485041 10.7982422,1.50849609 C9.91875,3.70166016 10.1636719,6.20654297 9.36210938,8.42753906 C9.36210938,8.46650391 9.32314453,8.51103516 9.30644531,8.55556641 C9.69926644,7.91564297 10.0327824,7.24115822 10.302832,6.54052734 Z" id="Shape"></path>
                                <path d="M52.9511135,107.055306 C49.4780122,108.603938 45.8283126,110.116344 42.0291835,109.921633 C38.2300545,109.726922 34.2814961,107.299827 33.6067997,103.559564 C33.3758634,102.278094 33.4075606,100.706821 32.2936324,100.032125 C31.6234642,99.6245898 30.7540568,99.7287376 30.0295507,99.4208225 C28.9790168,98.9680061 28.4628062,97.8178526 28.1186658,96.7310934 C27.4107789,94.4943812 27.0309893,92.1668355 26.9911531,89.8211162 C26.9458715,87.0453521 27.3126527,84.0160108 25.74138,81.7292883 C24.2833114,79.6146361 21.693202,78.559574 20.0132534,76.5943511 C18.4600934,74.7830858 16.7756166,72.6186237 14.2307889,72.2744833 C10.7441031,71.821667 3.46734462,76.5762385 1.39344582,71.4865829 C1.06097833,70.5245314 1.10794196,69.4718985 1.52476255,68.5432767 C1.37533316,68.7968539 1.23043194,69.050431 1.0991152,69.3085363 C0.510453968,70.4541616 0.139144575,71.8307233 0.646298868,73.0216303 C2.72472584,78.1112858 9.99695614,73.3340735 13.4881701,73.8095307 C16.0284697,74.1536711 17.7174746,76.3317177 19.2706346,78.1293985 C20.9505832,80.0765087 23.5361645,81.1496834 24.9942331,83.2688639 C26.5700339,85.5329455 26.2032527,88.5849276 26.2485343,91.3561636 C26.2858069,93.7002764 26.6641012,96.0264808 27.3715188,98.2616127 C27.7156592,99.3438437 28.236398,100.525694 29.2824038,100.951342 C30.0069099,101.254729 30.8763173,101.155109 31.5464854,101.562644 C32.6558854,102.232812 32.6287165,103.826725 32.8551246,105.085555 C33.529821,108.825818 37.4874357,111.257441 41.2820366,111.452152 C45.0766375,111.646863 48.7308653,110.129929 52.1994384,108.581297 C54.6989845,107.471897 57.483805,105.927793 58.2309519,103.401078 C57.0174042,105.062914 54.8982237,106.190427 52.9511135,107.055306 Z" id="Shape"></path>
                            </g>
                        </g>
                    </g>
                </g>
            </g>
        </g>
    </g>
</svg>