<?xml version="1.0" encoding="UTF-8"?>
<svg width="27px" height="23px" viewBox="0 0 27 23" version="1.1" xmlns="http://www.w3.org/2000/svg" xmlns:xlink="http://www.w3.org/1999/xlink">
    <!-- Generator: Sketch 51.3 (57544) - http://www.bohemiancoding.com/sketch -->
    <title>team-2715_e1cf958a-ed6b-4cee-b0b0-f07254a6f38e</title>
    <desc>Created with Sketch.</desc>
    <defs></defs>
    <g id="Page-1" stroke="none" stroke-width="1" fill="none" fill-rule="evenodd" stroke-linecap="round" stroke-linejoin="round">
        <g id="Siena" transform="translate(-947.000000, -1224.000000)" stroke="#FFFFFF" stroke-width="1.5">
            <g id="Features" transform="translate(0.000000, 910.000000)">
                <g id="Content" transform="translate(405.000000, 290.000000)">
                    <g id="2" transform="translate(400.000000, 0.000000)">
                        <g id="Icon" transform="translate(120.000000, 0.000000)">
                            <g id="team-2715_e1cf958a-ed6b-4cee-b0b0-f07254a6f38e" transform="translate(23.000000, 25.000000)">
                                <path d="M11.6666667,12.9166667 C12.5148774,12.7926393 13.3511569,12.5975074 14.1666667,12.3333333 C15.4583333,11.875 15.4166667,11.2083333 15.4166667,10.8333333 L15.4166667,10 M15.0833333,1.25 C15.76466,0.69457453 16.6211373,0.399237527 17.5,0.416666667 C19.1666667,0.416666667 21.25,1.41666667 21.25,4 L21.25,6.41666667 C21.2412867,7.79649275 20.6329888,9.10433307 19.5833333,10 L19.5833333,10.7916667 C19.5833333,11.2916667 19.5416667,12.1666667 22.0416667,12.6666667 C24.5416667,13.1666667 25,15.4166667 25,15.4166667 L25,17.0833333 L20.8333333,17.0833333" id="Shape"></path>
                                <path d="M14.75,15.375 C11.625,14.9583333 11.6666667,13.8333333 11.6666667,13.25 L11.6666667,12.2916667 C12.7916667,11.2916667 13.3333333,9.625 13.3333333,7.75 L13.3333333,4.83333333 C13.3333333,1.66666667 11.2083333,0.416666667 9.16666667,0.416666667 C7.125,0.416666667 5,1.66666667 5,4.83333333 L5,7.75 C5,9.625 5.54166667,11.3333333 6.66666667,12.3333333 L6.66666667,13.3333333 C6.66666667,13.9583333 6.70833333,14.9583333 3.58333333,15.375 C0.458333333,15.7916667 0,18.75 0,18.75 L0,20.4166667 L18.3333333,20.4166667 L18.3333333,18.75 C18.3333333,18.75 18.3333333,15.9166667 14.75,15.375 Z" id="Shape"></path>
                            </g>
                        </g>
                    </g>
                </g>
            </g>
        </g>
    </g>
</svg>