<?xml version="1.0" encoding="UTF-8"?>
<svg width="595px" height="482px" viewBox="0 0 595 482" version="1.1" xmlns="http://www.w3.org/2000/svg" xmlns:xlink="http://www.w3.org/1999/xlink">
    <!-- Generator: Sketch 51.3 (57544) - http://www.bohemiancoding.com/sketch -->
    <title>Image</title>
    <desc>Created with Sketch.</desc>
    <defs>
        <linearGradient x1="49.9963627%" y1="100.004109%" x2="49.9963627%" y2="7.92274891e-06%" id="linearGradient-1">
            <stop stop-color="#808080" stop-opacity="0.25" offset="0%"></stop>
            <stop stop-color="#808080" stop-opacity="0.12" offset="54%"></stop>
            <stop stop-color="#808080" stop-opacity="0.1" offset="100%"></stop>
        </linearGradient>
        <linearGradient x1="100%" y1="69.9207775%" x2="0%" y2="63.4703765%" id="linearGradient-2">
            <stop stop-color="#885BFE" offset="0%"></stop>
            <stop stop-color="#664FFA" offset="100%"></stop>
        </linearGradient>
        <linearGradient x1="100%" y1="74.1696188%" x2="0%" y2="63.4703765%" id="linearGradient-3">
            <stop stop-color="#885BFE" offset="0%"></stop>
            <stop stop-color="#664FFA" offset="100%"></stop>
        </linearGradient>
        <linearGradient x1="53.2252005%" y1="100%" x2="53.2252005%" y2="2.77555756e-15%" id="linearGradient-4">
            <stop stop-color="#885BFE" offset="0%"></stop>
            <stop stop-color="#664FFA" offset="100%"></stop>
        </linearGradient>
        <linearGradient x1="50%" y1="100%" x2="50%" y2="-2.48949813e-15%" id="linearGradient-5">
            <stop stop-color="#885BFE" offset="0%"></stop>
            <stop stop-color="#664FFA" offset="100%"></stop>
        </linearGradient>
        <linearGradient x1="49.9850541%" y1="99.9893978%" x2="49.9850541%" y2="0.00591134653%" id="linearGradient-6">
            <stop stop-color="#808080" stop-opacity="0.25" offset="0%"></stop>
            <stop stop-color="#808080" stop-opacity="0.12" offset="54%"></stop>
            <stop stop-color="#808080" stop-opacity="0.1" offset="100%"></stop>
        </linearGradient>
    </defs>
    <g id="Page-1" stroke="none" stroke-width="1" fill="none" fill-rule="evenodd">
        <g id="Siena" transform="translate(-980.000000, -269.000000)" fill-rule="nonzero">
            <g id="Header">
                <g id="Image" transform="translate(941.000000, 236.000000)">
                    <g id="Group" opacity="0.1" transform="translate(417.513863, 285.941402)" fill="#6C63FF">
                        <path d="M11.3419593,104.330407 C11.3419593,104.330407 13.4685767,74.5277264 30.24122,58.2777264 C37.3220248,51.5073126 42.0145275,42.6219133 43.6136784,32.9565619 C44.3357012,28.3618713 44.6373192,23.710921 44.5147874,19.0614603" id="Shape"></path>
                        <path d="M55.021719,8.75878004 C53.7902033,12.0508318 44.2684843,19.3678373 44.2684843,19.3678373 C44.2684843,19.3678373 41.8655268,7.59935305 43.1090573,4.30730129 C44.3382993,1.01771076 48.0015368,-0.652531794 51.2911274,0.576710077 C54.580718,1.80595195 56.2509608,5.46918938 55.021719,8.75878004 Z" id="Shape"></path>
                        <path d="M58.0614603,30.6677449 C55.2379852,32.7583179 43.2712569,33.7255083 43.2712569,33.7255083 C43.2712569,33.7255083 47.6566543,22.5457486 50.4801294,20.4491682 C53.3020243,18.4703942 57.1864663,19.0985824 59.2408215,21.8659389 C61.2951767,24.6332954 60.7722545,28.5333034 58.0614603,30.6617375 L58.0614603,30.6677449 Z" id="Shape"></path>
                        <path d="M45.9926063,61.6478743 C42.4963031,62.0323475 31.6769871,56.8419593 31.6769871,56.8419593 C31.6769871,56.8419593 41.1085952,49.4048059 44.5988909,49.0323475 C47.9677893,48.8474651 50.8940679,51.3271351 51.2645569,54.6806997 C51.635046,58.0342643 49.3206191,61.0929075 45.9926063,61.6478743 Z" id="Shape"></path>
                        <path d="M31.5808688,83.0341959 C28.2047135,84.0013863 16.6585028,80.6973198 16.6585028,80.6973198 C16.6585028,80.6973198 24.6963956,71.7763401 28.0725508,70.8091497 C30.2796855,70.1070841 32.6939836,70.659989 34.3756016,72.2526285 C36.0572197,73.845268 36.7404298,76.2259744 36.1592703,78.467981 C35.5781109,80.7099875 33.8244163,82.4590142 31.5808688,83.0341959 Z" id="Shape"></path>
                        <path d="M30.5235675,29.6885397 C32.0254159,32.8604436 42.1298521,39.3424214 42.1298521,39.3424214 C42.1298521,39.3424214 43.5235675,27.4177449 42.0157116,24.2398336 C40.4521848,21.1730699 36.7329345,19.9062313 33.6224979,21.3809652 C30.5120613,22.8556991 29.138845,26.5370005 30.5235675,29.6885397 Z" id="Shape"></path>
                        <path d="M13.9852126,54.913586 C16.3881701,57.4907579 27.952403,60.6566543 27.952403,60.6566543 C27.952403,60.6566543 25.7116451,48.8581331 23.3267098,46.2749538 C20.9381115,43.7100874 16.9249573,43.5602446 14.3517428,45.9398474 C11.7785284,48.3194502 11.6146345,52.3320551 13.9852126,54.913586 Z" id="Shape"></path>
                        <path d="M1.27957486,81.6344732 C3.18992606,84.5780961 14.0753235,89.6543438 14.0753235,89.6543438 C14.0753235,89.6543438 13.8590573,77.6395564 11.9426987,74.7019409 C9.98489178,71.8691274 6.1284998,71.1082886 3.24148702,72.9852535 C0.354474246,74.8622185 -0.515048598,78.6955675 1.27957486,81.6344732 Z" id="Shape"></path>
                        <path d="M55.021719,8.75878004 C53.7902033,12.0508318 44.2684843,19.3678373 44.2684843,19.3678373 C44.2684843,19.3678373 41.8655268,7.59935305 43.1090573,4.30730129 C44.3382993,1.01771076 48.0015368,-0.652531794 51.2911274,0.576710077 C54.580718,1.80595195 56.2509608,5.46918938 55.021719,8.75878004 Z" id="Shape"></path>
                        <path d="M58.0614603,30.6677449 C55.2379852,32.7583179 43.2712569,33.7255083 43.2712569,33.7255083 C43.2712569,33.7255083 47.6566543,22.5457486 50.4801294,20.4491682 C53.3020243,18.4703942 57.1864663,19.0985824 59.2408215,21.8659389 C61.2951767,24.6332954 60.7722545,28.5333034 58.0614603,30.6617375 L58.0614603,30.6677449 Z" id="Shape"></path>
                        <path d="M45.9926063,61.6478743 C42.4963031,62.0323475 31.6769871,56.8419593 31.6769871,56.8419593 C31.6769871,56.8419593 41.1085952,49.4048059 44.5988909,49.0323475 C47.9677893,48.8474651 50.8940679,51.3271351 51.2645569,54.6806997 C51.635046,58.0342643 49.3206191,61.0929075 45.9926063,61.6478743 Z" id="Shape"></path>
                        <path d="M31.5808688,83.0341959 C28.2047135,84.0013863 16.6585028,80.6973198 16.6585028,80.6973198 C16.6585028,80.6973198 24.6963956,71.7763401 28.0725508,70.8091497 C30.2796855,70.1070841 32.6939836,70.659989 34.3756016,72.2526285 C36.0572197,73.845268 36.7404298,76.2259744 36.1592703,78.467981 C35.5781109,80.7099875 33.8244163,82.4590142 31.5808688,83.0341959 Z" id="Shape"></path>
                        <path d="M30.5235675,29.6885397 C32.0254159,32.8604436 42.1298521,39.3424214 42.1298521,39.3424214 C42.1298521,39.3424214 43.5235675,27.4177449 42.0157116,24.2398336 C40.4521848,21.1730699 36.7329345,19.9062313 33.6224979,21.3809652 C30.5120613,22.8556991 29.138845,26.5370005 30.5235675,29.6885397 Z" id="Shape"></path>
                        <path d="M13.9852126,54.913586 C16.3881701,57.4907579 27.952403,60.6566543 27.952403,60.6566543 C27.952403,60.6566543 25.7116451,48.8581331 23.3267098,46.2749538 C20.9381115,43.7100874 16.9249573,43.5602446 14.3517428,45.9398474 C11.7785284,48.3194502 11.6146345,52.3320551 13.9852126,54.913586 Z" id="Shape"></path>
                        <path d="M1.27957486,81.6344732 C3.18992606,84.5780961 14.0753235,89.6543438 14.0753235,89.6543438 C14.0753235,89.6543438 13.8590573,77.6395564 11.9426987,74.7019409 C9.98489178,71.8691274 6.1284998,71.1082886 3.24148702,72.9852535 C0.354474246,74.8622185 -0.515048598,78.6955675 1.27957486,81.6344732 Z" id="Shape"></path>
                    </g>
                    <g id="Group" opacity="0.1" transform="translate(423.521257, 173.002400)" fill="#6C63FF">
                        <path d="M11.2218115,104.462569 C11.2218115,104.462569 13.3484288,74.6598891 30.1210721,58.4098891 C37.1994247,51.6376235 41.8914676,42.7530948 43.4935305,33.0887246 C44.2213065,28.494673 44.5229589,23.843193 44.3946396,19.1936229" id="Shape"></path>
                        <path d="M54.9015712,8.8909427 C53.7000924,12.1769871 44.1543438,19.4939926 44.1543438,19.4939926 C44.1543438,19.4939926 41.7513863,7.72550832 42.9889094,4.43946396 C44.2181513,1.14987325 47.881389,-0.520369454 51.1709797,0.708872458 C54.4605704,1.93811437 56.1308131,5.60135199 54.9015712,8.8909427 Z" id="Shape"></path>
                        <path d="M57.9593346,30.7939002 C55.1418669,32.8904806 43.1691312,33.8516636 43.1691312,33.8516636 C43.1691312,33.8516636 47.5545287,22.6779113 50.3780037,20.5813309 C52.1979393,19.1523722 54.6502294,18.8242327 56.7818292,19.7244387 C58.9134289,20.6246448 60.3881765,22.6112303 60.6329339,24.9121393 C60.8776913,27.2130483 59.8538593,29.4654183 57.9593346,30.7939002 Z" id="Shape"></path>
                        <path d="M45.8724584,61.780037 C42.3821627,62.1645102 31.5628466,56.974122 31.5628466,56.974122 C31.5628466,56.974122 40.9944547,49.542976 44.4847505,49.1645102 C46.7669245,48.8712068 49.0296154,49.8330693 50.4020167,51.6799206 C51.7744179,53.526772 52.0426167,55.9707481 51.1033956,58.0712739 C50.1641745,60.1717998 48.1639274,61.6014716 45.8724584,61.8100739 L45.8724584,61.780037 Z" id="Shape"></path>
                        <path d="M31.4607209,83.1663586 C28.0845656,84.133549 16.5383549,80.8294824 16.5383549,80.8294824 C16.5383549,80.8294824 24.5822551,71.9085028 27.952403,70.935305 C31.3116032,70.0198957 34.7826403,71.9748359 35.7410895,75.3220102 C36.6995387,78.6691845 34.7893104,82.1650273 31.4547135,83.1663586 L31.4607209,83.1663586 Z" id="Shape"></path>
                        <path d="M30.4034196,29.814695 C31.905268,32.9926063 42.0157116,39.4745841 42.0157116,39.4745841 C42.0157116,39.4745841 43.4034196,27.5439002 41.9015712,24.3719963 C40.9571414,22.2723008 38.9519668,20.8467102 36.658551,20.6444405 C34.3651353,20.4421708 32.141393,21.4947886 30.8440323,23.3967676 C29.5466716,25.2987465 29.3781608,27.7532603 30.4034196,29.814695 Z" id="Shape"></path>
                        <path d="M13.8650647,55.0397412 C16.2680222,57.6229205 27.8382625,60.7828096 27.8382625,60.7828096 C27.8382625,60.7828096 25.5914972,48.9842884 23.2065619,46.4071165 C20.8009404,43.9338773 16.8623496,43.8289354 14.3284382,46.1705629 C11.7945267,48.5121904 11.5889609,52.4468127 13.8650647,55.0397412 Z" id="Shape"></path>
                        <path d="M1.15942699,81.7666359 C3.07578558,84.7102588 13.9551756,89.7865065 13.9551756,89.7865065 C13.9551756,89.7865065 13.7389094,77.771719 11.8225508,74.8341035 C10.615678,72.8577081 8.43018998,71.6932102 6.11662965,71.7938061 C3.80306931,71.8944021 1.72690553,73.244201 0.69613451,75.3178914 C-0.334636506,77.3915819 -0.157185731,79.8615868 1.15942699,81.7666359 Z" id="Shape"></path>
                        <path d="M54.9015712,8.8909427 C53.7000924,12.1769871 44.1543438,19.4939926 44.1543438,19.4939926 C44.1543438,19.4939926 41.7513863,7.72550832 42.9889094,4.43946396 C44.2181513,1.14987325 47.881389,-0.520369454 51.1709797,0.708872458 C54.4605704,1.93811437 56.1308131,5.60135199 54.9015712,8.8909427 Z" id="Shape"></path>
                        <path d="M57.9593346,30.7939002 C55.1418669,32.8904806 43.1691312,33.8516636 43.1691312,33.8516636 C43.1691312,33.8516636 47.5545287,22.6779113 50.3780037,20.5813309 C52.1979393,19.1523722 54.6502294,18.8242327 56.7818292,19.7244387 C58.9134289,20.6246448 60.3881765,22.6112303 60.6329339,24.9121393 C60.8776913,27.2130483 59.8538593,29.4654183 57.9593346,30.7939002 Z" id="Shape"></path>
                        <path d="M45.8724584,61.780037 C42.3821627,62.1645102 31.5628466,56.974122 31.5628466,56.974122 C31.5628466,56.974122 40.9944547,49.542976 44.4847505,49.1645102 C46.7669245,48.8712068 49.0296154,49.8330693 50.4020167,51.6799206 C51.7744179,53.526772 52.0426167,55.9707481 51.1033956,58.0712739 C50.1641745,60.1717998 48.1639274,61.6014716 45.8724584,61.8100739 L45.8724584,61.780037 Z" id="Shape"></path>
                        <path d="M31.4607209,83.1663586 C28.0845656,84.133549 16.5383549,80.8294824 16.5383549,80.8294824 C16.5383549,80.8294824 24.5822551,71.9085028 27.952403,70.935305 C31.3116032,70.0198957 34.7826403,71.9748359 35.7410895,75.3220102 C36.6995387,78.6691845 34.7893104,82.1650273 31.4547135,83.1663586 L31.4607209,83.1663586 Z" id="Shape"></path>
                        <path d="M30.4034196,29.814695 C31.905268,32.9926063 42.0157116,39.4745841 42.0157116,39.4745841 C42.0157116,39.4745841 43.4034196,27.5439002 41.9015712,24.3719963 C40.9571414,22.2723008 38.9519668,20.8467102 36.658551,20.6444405 C34.3651353,20.4421708 32.141393,21.4947886 30.8440323,23.3967676 C29.5466716,25.2987465 29.3781608,27.7532603 30.4034196,29.814695 Z" id="Shape"></path>
                        <path d="M13.8650647,55.0397412 C16.2680222,57.6229205 27.8382625,60.7828096 27.8382625,60.7828096 C27.8382625,60.7828096 25.5914972,48.9842884 23.2065619,46.4071165 C20.8009404,43.9338773 16.8623496,43.8289354 14.3284382,46.1705629 C11.7945267,48.5121904 11.5889609,52.4468127 13.8650647,55.0397412 Z" id="Shape"></path>
                        <path d="M1.15942699,81.7666359 C3.07578558,84.7102588 13.9551756,89.7865065 13.9551756,89.7865065 C13.9551756,89.7865065 13.7389094,77.771719 11.8225508,74.8341035 C10.615678,72.8577081 8.43018998,71.6932102 6.11662965,71.7938061 C3.80306931,71.8944021 1.72690553,73.244201 0.69613451,75.3178914 C-0.334636506,77.3915819 -0.157185731,79.8615868 1.15942699,81.7666359 Z" id="Shape"></path>
                    </g>
                    <g id="Group" opacity="0.1" transform="translate(39.048059, 232.475597)" fill="#6C63FF">
                        <path d="M77.00878,84.0374307 C77.00878,84.0374307 51.3512015,68.7426063 44.3646026,46.4671904 C41.5031473,37.0980598 35.6759983,28.9118009 27.7601664,23.1404806 C23.9803939,20.4254933 19.9584577,18.0646168 15.7453789,16.0878004" id="Shape"></path>
                        <path d="M11.2698706,2.05452865 C13.6728281,4.63170055 15.913586,16.4302218 15.913586,16.4302218 C15.913586,16.4302218 4.32532348,13.2763401 1.94038817,10.6991682 C-0.330943934,8.10846326 -0.127140091,4.1804323 2.40010899,1.83869925 C4.92735808,-0.503033808 8.85950867,-0.407352125 11.2698706,2.05452865 Z" id="Shape"></path>
                        <path d="M32.2056377,9.22134935 C32.8063771,12.6816081 28.288817,23.8073013 28.288817,23.8073013 C28.288817,23.8073013 20.2749538,14.8622921 19.6742144,11.4020333 C19.221773,9.13627849 20.0333235,6.80333429 21.7942764,5.30754266 C23.5552294,3.81175104 25.988728,3.38828029 28.1514512,4.20128453 C30.3141745,5.01428877 31.8660993,6.93594751 32.2056377,9.22134935 Z" id="Shape"></path>
                        <path d="M54.457024,33.8997227 C53.2555453,37.1917745 43.7097967,44.5147874 43.7097967,44.5147874 C43.7097967,44.5147874 41.3068392,32.7463031 42.5383549,29.4602588 C43.2852601,27.2684988 45.1640381,25.6556372 47.4436297,25.2492615 C49.7232213,24.8428857 52.0435938,25.7071777 53.5018573,27.5058291 C54.9601207,29.3044805 55.3259609,31.7534171 54.457024,33.8997227 Z" id="Shape"></path>
                        <path d="M67.0785582,56.3853974 C66.4297597,59.8396488 58.2837338,68.6945471 58.2837338,68.6945471 C58.2837338,68.6945471 53.9283734,57.5027726 54.5831793,54.0545287 C55.0049144,51.8224441 56.5854166,49.9849059 58.7293262,49.234097 C60.8732357,48.4832881 63.2548415,48.9332742 64.9770158,50.4145499 C66.6991901,51.8958256 67.5002935,54.1833499 67.0785582,56.4154344 L67.0785582,56.3853974 Z" id="Shape"></path>
                        <path d="M18.9533272,33.3470425 C22.4616451,33.431146 32.8003697,27.3396488 32.8003697,27.3396488 C32.8003697,27.3396488 22.7680222,20.7315157 19.2536969,20.6474122 C15.7889465,20.6337391 12.9503443,23.3951673 12.8685348,26.8589787 C12.7867254,30.3227901 15.4917946,33.2151506 18.9533272,33.3650647 L18.9533272,33.3470425 Z" id="Shape"></path>
                        <path d="M34.0499076,59.461183 C37.4260628,58.4879852 45.4639556,49.5609982 45.4639556,49.5609982 C45.4639556,49.5609982 33.9177449,46.262939 30.5415896,47.2361368 C27.2440836,48.2685002 25.3734899,51.7441898 26.3281297,55.0650305 C27.2827694,58.3858713 30.7135712,60.3375725 34.055915,59.461183 L34.0499076,59.461183 Z" id="Shape"></path>
                        <path d="M52.2042514,82.8239372 C55.7005545,82.439464 65.1261553,75.0143253 65.1261553,75.0143253 C65.1261553,75.0143253 54.3128466,69.8119224 50.810536,70.2084104 C48.4595768,70.3374291 46.3725588,71.7555281 45.3868221,73.8937465 C44.4010854,76.031965 44.6781557,78.5399286 46.1068685,80.4114079 C47.5355813,82.2828872 49.8818238,83.2112164 52.2042514,82.8239372 Z" id="Shape"></path>
                        <path d="M11.2698706,2.05452865 C13.6728281,4.63170055 15.913586,16.4302218 15.913586,16.4302218 C15.913586,16.4302218 4.32532348,13.2763401 1.94038817,10.6991682 C-0.330943934,8.10846326 -0.127140091,4.1804323 2.40010899,1.83869925 C4.92735808,-0.503033808 8.85950867,-0.407352125 11.2698706,2.05452865 Z" id="Shape"></path>
                        <path d="M32.2056377,9.22134935 C32.8063771,12.6816081 28.288817,23.8073013 28.288817,23.8073013 C28.288817,23.8073013 20.2749538,14.8622921 19.6742144,11.4020333 C19.221773,9.13627849 20.0333235,6.80333429 21.7942764,5.30754266 C23.5552294,3.81175104 25.988728,3.38828029 28.1514512,4.20128453 C30.3141745,5.01428877 31.8660993,6.93594751 32.2056377,9.22134935 Z" id="Shape"></path>
                        <path d="M54.457024,33.8997227 C53.2555453,37.1917745 43.7097967,44.5147874 43.7097967,44.5147874 C43.7097967,44.5147874 41.3068392,32.7463031 42.5383549,29.4602588 C43.2852601,27.2684988 45.1640381,25.6556372 47.4436297,25.2492615 C49.7232213,24.8428857 52.0435938,25.7071777 53.5018573,27.5058291 C54.9601207,29.3044805 55.3259609,31.7534171 54.457024,33.8997227 Z" id="Shape"></path>
                        <path d="M67.0785582,56.3853974 C66.4297597,59.8396488 58.2837338,68.6945471 58.2837338,68.6945471 C58.2837338,68.6945471 53.9283734,57.5027726 54.5831793,54.0545287 C55.0049144,51.8224441 56.5854166,49.9849059 58.7293262,49.234097 C60.8732357,48.4832881 63.2548415,48.9332742 64.9770158,50.4145499 C66.6991901,51.8958256 67.5002935,54.1833499 67.0785582,56.4154344 L67.0785582,56.3853974 Z" id="Shape"></path>
                        <path d="M18.9533272,33.3470425 C22.4616451,33.431146 32.8003697,27.3396488 32.8003697,27.3396488 C32.8003697,27.3396488 22.7680222,20.7315157 19.2536969,20.6474122 C15.7889465,20.6337391 12.9503443,23.3951673 12.8685348,26.8589787 C12.7867254,30.3227901 15.4917946,33.2151506 18.9533272,33.3650647 L18.9533272,33.3470425 Z" id="Shape"></path>
                        <path d="M34.0499076,59.461183 C37.4260628,58.4879852 45.4639556,49.5609982 45.4639556,49.5609982 C45.4639556,49.5609982 33.9177449,46.262939 30.5415896,47.2361368 C27.2440836,48.2685002 25.3734899,51.7441898 26.3281297,55.0650305 C27.2827694,58.3858713 30.7135712,60.3375725 34.055915,59.461183 L34.0499076,59.461183 Z" id="Shape"></path>
                        <path d="M52.2042514,82.8239372 C55.7005545,82.439464 65.1261553,75.0143253 65.1261553,75.0143253 C65.1261553,75.0143253 54.3128466,69.8119224 50.810536,70.2084104 C48.4595768,70.3374291 46.3725588,71.7555281 45.3868221,73.8937465 C44.4010854,76.031965 44.6781557,78.5399286 46.1068685,80.4114079 C47.5355813,82.2828872 49.8818238,83.2112164 52.2042514,82.8239372 Z" id="Shape"></path>
                    </g>
                    <path d="M430.56793,496.41044 C447.815157,503.913675 468.859057,499.348056 488.431146,499.876707 C491.104436,499.948795 493.945933,500.171069 496.090573,501.468666 C498.235213,502.766263 499.298521,504.862843 500.770333,506.665061 C506.255083,513.357298 517.494917,515.507945 527.317006,514.372548 C537.139094,513.23715 546.144177,509.476522 555.413586,506.617002 C571.435305,501.66691 589.745841,499.40813 605.551294,504.814784 C606.999076,505.30739 608.554991,505.878093 610.080869,505.679849 C613.547135,505.241309 614.580407,501.648888 617.001386,499.600366 C621.374769,495.893805 630.878466,496.903047 632.800832,492.019036 C633.924214,489.159516 631.335028,486.227908 628.511553,484.275505 C617.698244,476.802307 602.259242,475.570792 588.123845,476.724211 C573.988447,477.877631 560.093346,481.055542 545.88586,481.067557 C528.18207,481.067557 511.07902,476.189553 493.549445,474.189091 C481.408503,472.80739 468.156192,472.987612 456.772181,477.054618 C444.432994,481.45203 441.717652,491.358222 430.56793,496.41044 Z" id="Shape" fill="#6C63FF" opacity="0.1"></path>
                    <path d="M104.174214,473.396115 C133.610444,481.872548 169.534658,476.712196 202.935767,477.312936 C207.507394,477.397039 212.349353,477.643342 216.019871,479.115154 C219.690388,480.586965 221.492606,482.959886 224.009704,484.990385 C233.369224,492.553694 252.550832,494.986688 269.31146,493.701106 C286.072089,492.415524 301.451017,488.168296 317.274492,484.936318 C344.620148,479.343435 375.882625,476.7963 402.855823,482.893805 C405.330869,483.452492 407.938078,484.095283 410.593346,483.87301 C416.504621,483.374396 418.264787,479.319405 422.403882,477.000551 C429.871072,472.795376 446.085028,473.954803 449.365065,468.440015 C451.287431,465.208037 446.865989,461.891956 442.048059,459.687243 C423.617375,451.246854 397.244917,449.853139 373.113216,451.156744 C348.981516,452.460348 325.264325,456.046762 301.024492,456.064784 C270.807301,456.064784 241.611368,450.556004 211.68854,448.291217 C190.963031,446.729294 168.345194,446.921531 148.911275,451.535209 C127.843346,456.515339 123.19963,467.707113 104.174214,473.396115 Z" id="Shape" fill="#6C63FF" opacity="0.1"></path>
                    <path d="M417.802218,33.4326215 L138.686691,33.4326215 C131.906328,33.4214602 125.399326,36.1046602 120.597561,40.8917785 C115.795797,45.6788967 113.092731,52.1776721 113.083179,58.9580374 L113.083179,445.671993 C113.11301,459.78451 124.574162,471.202635 138.686691,471.179387 L417.802218,471.179387 C424.582581,471.190548 431.089584,468.507348 435.891348,463.72023 C440.693113,458.933112 443.396178,452.434336 443.40573,445.653971 L443.40573,58.9580374 C443.396178,52.1776721 440.693113,45.6788967 435.891348,40.8917785 C431.089584,36.1046602 424.582581,33.4214602 417.802218,33.4326215 Z" id="Shape" fill="url(#linearGradient-1)"></path>
                    <rect id="Rectangle-path" fill="#6262A0" x="117.018022" y="38.6770762" width="322.428835" height="428.591497" rx="20"></rect>
                    <rect id="Rectangle-path" fill="#F6F5FF" x="133.400185" y="79.214969" width="289.66451" height="347.509704"></rect>
                    <circle id="Oval" fill="#F6F7F9" cx="276.922828" cy="58.3332685" r="3.93484288"></circle>
                    <circle id="Oval" fill="#F6F7F9" cx="276.922828" cy="446.296762" r="11.7985213"></circle>
                    <g id="Group" opacity="0.2" transform="translate(133.364140, 78.686318)" fill="#664FFA">
                        <rect id="Rectangle-path" x="0.0360443623" y="0.528650647" width="289.66451" height="17.3193161"></rect>
                    </g>
                    <circle id="Oval" fill="#F6F7F9" cx="142.459335" cy="87.8776308" r="3.69454713"></circle>
                    <circle id="Oval" fill="#F6F7F9" cx="151.872921" cy="87.8776308" r="3.69454713"></circle>
                    <circle id="Oval" fill="#F6F7F9" cx="161.280499" cy="87.8776308" r="3.69454713"></circle>
                    <rect id="Rectangle-path" fill="#DCE0ED" x="142.050832" y="181.370699" width="269.737985" height="1"></rect>
                    <rect id="Rectangle-path" fill="#DCE0ED" x="142.050832" y="202.294451" width="269.737985" height="1"></rect>
                    <rect id="Rectangle-path" fill="#DCE0ED" x="142.050832" y="223.224211" width="269.737985" height="1"></rect>
                    <rect id="Rectangle-path" fill="#DCE0ED" x="142.050832" y="244.147963" width="269.737985" height="1"></rect>
                    <rect id="Rectangle-path" fill="#DCE0ED" x="142.050832" y="265.071716" width="269.737985" height="1"></rect>
                    <g id="Group" opacity="0.2" transform="translate(141.173752, 194.028278)" fill="url(#linearGradient-2)">
                        <polygon id="Shape" points="270.615065 71.9445471 0.546672828 71.9445471 0.546672828 30.7939002 25.3151571 43.0009242 50.9487061 46.4792052 73.4403882 39.6968577 100.575786 18.6529575 114.224584 10.7712569 124.202865 8.84889094 133.748614 9.35951941 149.445933 17.1150647 170.790203 30.7097967 187.538817 32.8604436 200.815157 28.2828096 228.965804 5.23243993 243.33549 0.108133087 258.371996 2.43299445 270.615065 9.50369686"></polygon>
                    </g>
                    <path d="M188.794362,240.495468 C164.470425,240.495468 141.996765,225.621161 141.714418,225.428925 L142.387246,224.431697 C142.735675,224.665986 177.326248,247.548148 206.720425,236.086041 C217.437616,231.880866 225.067006,225.404895 232.450092,219.115154 C240.157579,212.549073 247.432532,206.349442 257.356747,203.65813 C268.73475,200.576337 281.170055,203.363768 290.619686,211.131328 C298.69963,217.769498 314.787431,228.426614 331.782348,225.242695 C340.445009,223.614692 347.743993,217.288906 355.475508,210.590662 C370.295749,197.746854 385.626617,184.464507 412.143253,203.51996 L411.440388,204.493158 C385.692699,185.990385 370.734288,198.960348 356.262477,211.497779 C348.404806,218.304156 340.985675,224.714045 332.004621,226.420145 C314.523105,229.700182 298.098891,218.826799 289.856747,212.056466 C280.707486,204.541217 268.680684,201.843897 257.669131,204.817557 C248.009242,207.43678 240.848429,213.552307 233.225046,220.028278 C225.769871,226.3841 218.062384,232.950182 207.158965,237.203416 C201.296329,239.436541 195.067641,240.553101 188.794362,240.495468 Z" id="Shape" fill="url(#linearGradient-3)"></path>
                    <circle id="Oval" fill="url(#linearGradient-4)" cx="271.84658" cy="202.817095" r="6.68622921"></circle>
                    <g id="Group" opacity="0.2" transform="translate(273.336414, 114.129941)" fill="#664FFA">
                        <path d="M85.7255083,0.21025878 L1.38170055,0.21025878 C0.625243993,0.21025878 0.0120147874,0.823487986 0.0120147874,1.57994455 L0.0120147874,58.6201479 C0.0127393748,59.1813245 0.355704939,59.6852881 0.877472257,59.8918761 C1.39923958,60.0984642 1.99424003,59.9658781 2.37892791,59.5573013 L16.9949168,43.9681146 C17.2530148,43.6919607 17.6141555,43.5353214 17.9921442,43.5355823 L85.7255083,43.5355823 C86.4819649,43.5355823 87.0951941,42.922353 87.0951941,42.1658965 L87.0951941,1.56792976 C87.0885994,0.816169456 86.4772975,0.210229856 85.7255083,0.21025878 Z" id="Shape"></path>
                    </g>
                    <rect id="Rectangle-path" fill="#F2F0FF" x="292.872458" y="124.901198" width="48.0291128" height="6.00739372"></rect>
                    <rect id="Rectangle-path" fill="#F2F0FF" x="292.872458" y="138.213583" width="13.1862292" height="6.00739372"></rect>
                    <g id="Group" opacity="0.2" transform="translate(164.602588, 308.769498)" fill="#664FFA">
                        <rect id="Rectangle-path" x="0.228280961" y="0.192236599" width="13.1862292" height="6.00739372"></rect>
                    </g>
                    <g id="Group" opacity="0.2" transform="translate(164.602588, 320.183546)" fill="#664FFA">
                        <rect id="Rectangle-path" x="0.228280961" y="0.390480591" width="13.1862292" height="6.00739372"></rect>
                    </g>
                    <g id="Group" opacity="0.2" transform="translate(164.602588, 331.597594)" fill="#664FFA">
                        <rect id="Rectangle-path" x="0.228280961" y="0.588724584" width="13.1862292" height="6.00739372"></rect>
                    </g>
                    <g id="Group" opacity="0.2" transform="translate(164.602588, 343.612381)" fill="#664FFA">
                        <rect id="Rectangle-path" x="0.228280961" y="0.192236599" width="13.1862292" height="6.00739372"></rect>
                    </g>
                    <g id="Group" opacity="0.2" transform="translate(164.602588, 355.026429)" fill="#664FFA">
                        <rect id="Rectangle-path" x="0.228280961" y="0.390480591" width="13.1862292" height="6.00739372"></rect>
                    </g>
                    <g id="Group" opacity="0.2" transform="translate(164.602588, 366.440477)" fill="#664FFA">
                        <rect id="Rectangle-path" x="0.228280961" y="0.588724584" width="13.1862292" height="6.00739372"></rect>
                    </g>
                    <g id="Group" opacity="0.2" transform="translate(164.602588, 378.455265)" fill="#664FFA">
                        <rect id="Rectangle-path" x="0.228280961" y="0.192236599" width="13.1862292" height="6.00739372"></rect>
                    </g>
                    <g id="Group" opacity="0.2" transform="translate(164.602588, 389.869313)" fill="#664FFA">
                        <rect id="Rectangle-path" x="0.228280961" y="0.390480591" width="13.1862292" height="6.00739372"></rect>
                    </g>
                    <g id="Group" opacity="0.2" transform="translate(189.232902, 395.876707)" fill="#664FFA">
                        <rect id="Rectangle-path" x="0.426524954" y="0.390480591" width="13.1862292" height="6.00739372"></rect>
                    </g>
                    <g id="Group" opacity="0.2" transform="translate(212.661738, 395.876707)" fill="#664FFA">
                        <rect id="Rectangle-path" x="0.228280961" y="0.390480591" width="13.1862292" height="6.00739372"></rect>
                    </g>
                    <g id="Group" opacity="0.2" transform="translate(236.090573, 395.876707)" fill="#664FFA">
                        <rect id="Rectangle-path" x="0.0300369686" y="0.390480591" width="13.1862292" height="6.00739372"></rect>
                    </g>
                    <g id="Group" opacity="0.2" transform="translate(258.918669, 395.876707)" fill="#664FFA">
                        <rect id="Rectangle-path" x="0.426524954" y="0.390480591" width="13.1862292" height="6.00739372"></rect>
                    </g>
                    <g id="Group" opacity="0.2" transform="translate(282.347505, 395.876707)" fill="#664FFA">
                        <rect id="Rectangle-path" x="0.228280961" y="0.390480591" width="13.1862292" height="6.00739372"></rect>
                    </g>
                    <g id="Group" opacity="0.2" transform="translate(305.776340, 395.876707)" fill="#664FFA">
                        <rect id="Rectangle-path" x="0.0300369686" y="0.390480591" width="13.1862292" height="6.00739372"></rect>
                    </g>
                    <g id="Group" opacity="0.2" transform="translate(328.604436, 395.876707)" fill="#664FFA">
                        <rect id="Rectangle-path" x="0.426524954" y="0.390480591" width="13.1862292" height="6.00739372"></rect>
                    </g>
                    <g id="Group" opacity="0.2" transform="translate(352.033272, 395.876707)" fill="#664FFA">
                        <rect id="Rectangle-path" x="0.228280961" y="0.390480591" width="13.1862292" height="6.00739372"></rect>
                    </g>
                    <g id="Group" opacity="0.2" transform="translate(375.462107, 395.876707)" fill="#664FFA">
                        <rect id="Rectangle-path" x="0.0300369686" y="0.390480591" width="13.1862292" height="6.00739372"></rect>
                    </g>
                    <rect id="Rectangle-path" fill="#F2F0FF" x="320.878928" y="138.213583" width="20.0226433" height="6.00739372"></rect>
                    <rect id="Rectangle-path" fill="url(#linearGradient-5)" x="189.659427" y="352.611457" width="13.1862292" height="37.6483364"></rect>
                    <rect id="Rectangle-path" fill="url(#linearGradient-5)" x="212.890018" y="335.190015" width="13.1862292" height="55.0697782"></rect>
                    <rect id="Rectangle-path" fill="url(#linearGradient-5)" x="236.12061" y="320.574026" width="13.1862292" height="69.6857671"></rect>
                    <rect id="Rectangle-path" fill="url(#linearGradient-5)" x="259.345194" y="328.14935" width="13.1862292" height="62.1044362"></rect>
                    <rect id="Rectangle-path" fill="url(#linearGradient-5)" x="282.575786" y="314.969128" width="13.1862292" height="75.2906654"></rect>
                    <g id="Group" opacity="0.2" transform="translate(305.776340, 343.612381)" fill="#664FFA">
                        <rect id="Rectangle-path" x="0.0300369686" y="0.192236599" width="13.1862292" height="46.4551756"></rect>
                    </g>
                    <g id="Group" opacity="0.2" transform="translate(328.604436, 343.612381)" fill="#664FFA">
                        <rect id="Rectangle-path" x="0.426524954" y="0.192236599" width="13.1862292" height="46.4551756"></rect>
                    </g>
                    <g id="Group" opacity="0.2" transform="translate(352.033272, 343.612381)" fill="#664FFA">
                        <rect id="Rectangle-path" x="0.228280961" y="0.192236599" width="13.1862292" height="46.4551756"></rect>
                    </g>
                    <g id="Group" opacity="0.2" transform="translate(375.462107, 343.612381)" fill="#664FFA">
                        <rect id="Rectangle-path" x="0.0300369686" y="0.192236599" width="13.1862292" height="46.4551756"></rect>
                    </g>
                    <path d="M594.419593,175.705727 C580.140018,167.49362 574.745379,165.457113 574.715342,165.445098 L574.426987,165.23484 C572.869559,164.038713 571.631461,162.476646 570.822551,160.687243 C570.822551,160.356836 570.822551,160.032437 570.822551,159.708037 L570.822551,159.804156 C571.050832,155.454803 574.14464,151.49593 577.082255,148.041679 L584.58549,139.21081 C585.441209,138.339041 586.100733,137.294454 586.519871,136.147039 C586.67467,135.532745 586.74341,134.89993 586.724122,134.266725 C586.724122,134.008407 586.724122,133.750089 586.724122,133.497779 C586.688078,131.30508 586.621996,129.106374 586.5439,126.889646 C586.471811,124.973287 585.979205,122.558315 584.062847,122.161827 C583.065619,121.957575 581.75,122.318019 581.221349,121.458962 C581.04406,121.108002 580.999269,120.704882 581.095194,120.323564 C581.092372,120.353535 581.092372,120.383704 581.095194,120.413675 L581.095194,120.305542 C581.46825,118.826162 581.707507,117.31623 581.810074,115.793989 C581.847814,115.020291 581.741899,114.246296 581.497689,113.51118 C580.386322,110.327261 576.565619,109.023657 573.183457,108.422917 C569.801294,107.822178 566.016636,107.305542 563.896026,104.662289 C563.24122,103.845283 562.796673,102.860071 562.051756,102.121161 C561.073254,101.254348 559.88056,100.665261 558.597505,100.415061 C554.402811,99.3783698 549.982685,99.7629123 546.030037,101.508407 C544.396026,102.235302 542.756007,103.220514 540.965804,103.112381 C539.175601,103.004248 537.511553,101.712658 535.67329,101.400274 C532.705638,100.895653 529.86414,103.076337 528.404344,105.653509 C527.537276,107.186415 527.074216,108.91462 527.058688,110.67569 C527.058688,110.771808 527.058688,110.873934 527.058688,110.970052 C527.01474,112.863238 527.705888,114.699841 528.987061,116.094359 C530.266636,117.421993 532.176987,118.335117 532.705638,120.083268 C532.921904,120.792141 532.867837,121.561087 533.060074,122.281975 C533.060074,122.372085 533.11414,122.462196 533.144177,122.5463 L533.048059,122.672455 C529.984796,126.598254 528.326462,131.43788 528.338262,136.417372 C528.402558,146.329278 534.872148,155.060673 544.335952,158.007945 C544.335952,158.230219 544.335952,158.4585 544.335952,158.680773 C544.335952,161.40813 543.560998,164.189553 541.230129,166.238074 L521.009242,174.372085 C521.009242,174.372085 508.82024,172.924304 504.422828,190.742233 C503.715299,193.70041 503.460092,196.748719 503.665896,199.783361 C503.828096,202.468666 503.455638,207.202492 500.331793,213.324026 C495.327634,223.116078 496.469039,245.595745 506.693623,247.824488 C516.347505,249.927076 520.126155,249.025967 520.510628,248.947871 L520.510628,249.338352 C520.354436,253.543527 518.822551,289.942326 513.253697,294.345745 C511.715804,295.547224 512.004159,296.388259 513.253697,296.940939 C513.253697,296.940939 513.253697,297.175228 513.217652,297.595745 C513.049445,300.257021 512.190388,310.391494 508.465804,316.158592 C504.146488,322.832806 504.597043,361.346207 504.597043,361.346207 L501.695471,384.072178 C501.695471,384.072178 503.497689,398.093435 501.695471,400.544451 C500.073475,402.725135 497.910813,454.610995 497.490296,465.850829 L497.298059,465.850829 C495.491162,465.959231 493.855409,466.955983 492.930684,468.512104 C490.527726,472.39288 482.177449,479.559701 482.177449,479.559701 C480.375231,482.136873 473.652957,484.599904 470.102588,485.765339 C469.62672,485.918315 469.167765,486.119611 468.732902,486.366078 C467.406555,487.089784 466.341131,488.211947 465.687153,489.574026 C465.220135,490.386 465.100983,491.352218 465.356747,492.253324 C466.269871,494.47606 485.133087,496.031975 489.902957,493.809239 C493.657579,492.05508 508.525878,489.754248 514.695471,488.853139 C516.999622,488.560205 518.814835,486.747462 519.110906,484.443712 C519.22092,483.655691 519.003873,482.856958 518.510166,482.232991 C517.308688,480.767187 516.707948,476.77227 516.44963,474.165061 C516.951292,473.962749 517.419224,473.685231 517.837338,473.342049 C517.330773,465.254807 518.490109,457.149681 521.24353,449.52874 C525.791128,437.513952 527.154806,415.244544 526.049445,400.77874 C526.049445,400.77874 539.91451,341.12532 550.823937,335.556466 C550.992144,335.766725 556.284658,342.567095 556.957486,363.59898 C557.642329,384.96728 565.367837,398.988536 565.367837,398.988536 C565.367837,398.988536 561.955638,435.273195 565.367837,448.849904 L560.904344,470.27227 C560.579945,469.989923 560.369686,469.773657 560.369686,469.773657 C560.369686,469.773657 560.501848,470.374396 560.688078,471.323564 L560.591959,471.774119 L560.784196,471.822178 C561.288817,474.501476 562.039741,479.16922 561.733364,481.908592 C561.553142,483.464507 561.132625,485.603139 560.82024,487.699719 C560.351664,490.997779 560.219501,494.193712 561.955638,494.908592 C564.797135,496.049997 581.503697,497.611919 584.345194,493.941402 C585.64539,492.413998 585.966691,490.281304 585.174214,488.438629 C584.967263,487.934297 584.687994,487.462779 584.345194,487.038906 C584.345194,487.038906 579.911738,479.787982 581.161275,474.67569 C581.400786,473.665563 581.209267,472.601327 580.632625,471.738074 C580.824861,469.226984 581.834104,457.614692 584.459335,447.750551 C587.300832,437.039368 593.302218,413.556466 588.886784,398.111457 C588.718577,397.510718 588.52634,396.909978 588.322089,396.309239 C585.774214,387.879408 584.924778,379.027717 585.823013,370.267187 C584.183859,362.786612 584.183859,355.039814 585.823013,347.559239 C588.55037,335.093897 590.454713,322.850829 590.454713,322.850829 C590.454713,322.850829 591.962569,306.384562 590.64695,296.286134 L590.556839,295.637335 L591.277726,295.475135 C591.277726,295.475135 587.414972,278.336041 586.051294,267.432622 C585.726895,264.85545 585.306377,261.593435 584.849815,258.109146 C586.10906,257.90792 587.349009,257.600445 588.556377,257.190015 C600.787431,252.942788 604.632163,214.663675 604.632163,214.663675 L604.632163,202.52874 C604.632163,202.52874 608.74122,183.941864 594.419593,175.705727 Z M502.987061,471.311549 C502.608595,471.119313 502.386322,470.993158 502.386322,470.993158 L502.987061,471.311549 Z" id="Shape" fill="url(#linearGradient-6)"></path>
                    <path d="M587.012477,396.633638 C592.335028,411.940477 586.123383,436.78105 583.239834,447.870699 C580.356285,458.960348 579.46719,472.27874 579.46719,472.27874 C568.155268,474.050921 559.949168,471.828185 559.949168,471.828185 L564.604898,449.000089 C561.276802,435.471439 564.604898,399.312936 564.604898,399.312936 C564.604898,399.312936 557.065619,385.339738 556.398799,364.043527 C555.743993,343.077723 550.577634,336.30739 550.391405,336.097132 C539.746303,341.641956 526.211645,401.097132 526.211645,401.097132 C527.323013,415.514877 525.989372,437.694174 521.555915,449.672917 C518.866897,457.281616 517.735105,465.353296 518.227819,473.40813 C516.677911,474.717742 514.521257,474.940015 512.190388,474.567557 C505.876617,473.516263 498.301294,468.061549 498.301294,468.061549 C498.301294,468.061549 500.704251,403.295838 502.50647,400.850829 C504.308688,398.405819 502.50647,384.432622 502.50647,384.432622 L505.384011,361.808777 C505.384011,361.808777 504.945471,323.427538 509.156654,316.753324 C512.797135,311.004248 513.632163,300.905819 513.794362,298.256559 C513.794362,297.836041 513.830407,297.601753 513.830407,297.601753 L520.246303,289.912289 C520.246303,289.912289 582.362754,285.256559 587.018484,289.912289 C588.165896,291.059701 588.868762,293.654895 589.289279,296.928925 C590.568854,306.991309 589.10305,323.403509 589.10305,323.403509 C589.10305,323.403509 587.240758,335.604525 584.579482,348.033823 C582.976556,355.489928 582.976556,363.201563 584.579482,370.657668 C583.696098,379.392164 584.522483,388.215103 587.012477,396.633638 Z" id="Shape" fill="#65617D"></path>
                    <path d="M583.131701,493.905357 C580.356285,497.56386 564.052218,496.007945 561.276802,494.872548 C559.582717,494.169683 559.71488,490.985764 560.171442,487.699719 C560.459797,485.609146 560.886322,483.494544 561.060536,481.926614 C561.505083,477.931697 559.726895,469.833731 559.726895,469.833731 C559.726895,469.833731 563.391405,473.714507 564.274492,469.833731 C564.664972,468.139646 566.028651,467.268573 567.440388,466.830034 C569.342234,466.25884 571.385659,466.386687 573.201479,467.190477 C576.07902,468.440015 580.890943,471.107298 580.025878,474.711734 C578.824399,479.806004 583.131701,487.032899 583.131701,487.032899 C583.465475,487.456465 583.736582,487.925844 583.936691,488.426614 C584.711471,490.260029 584.401116,492.372296 583.131701,493.905357 Z" id="Shape" fill="#A27772"></path>
                    <path d="M583.131701,493.905357 C580.356285,497.56386 564.052218,496.007945 561.276802,494.872548 C559.582717,494.169683 559.71488,490.985764 560.171442,487.699719 C561.919593,488.516725 564.899261,489.201568 569.861368,488.738999 C571.021449,488.630883 572.187115,488.59477 573.351664,488.630866 C576.880798,488.793041 580.416781,488.722803 583.936691,488.420607 C584.71393,490.255696 584.403469,492.370998 583.131701,493.905357 Z" id="Shape" fill="#000000" opacity="0.1"></path>
                    <path d="M526.229667,401.073102 C527.341035,415.490847 526.007394,437.670145 521.573937,449.648888 C518.884919,457.257586 517.753127,465.329267 518.245841,473.3841 C516.695933,474.693712 514.539279,474.915986 512.20841,474.543527 C513.548059,465.171993 519.249076,424.874396 522.931608,393.029202 C527.064695,356.762566 546.528651,331.807853 546.528651,331.807853 L550.409427,336.07911 C539.752311,341.617927 526.229667,401.073102 526.229667,401.073102 Z" id="Shape" fill="#000000" opacity="0.1"></path>
                    <path d="M576.475508,167.932159 L573.766174,181.238536 L560.501848,203.531975 L544.143715,196.545376 C544.143715,196.545376 521.916359,173.25471 535.883549,169.926614 C537.556817,169.569235 539.136653,168.865266 540.521257,167.860071 C543.266636,165.793527 544.125693,162.783823 544.125693,159.8402 C544.125693,154.980219 541.854898,150.294451 541.854898,150.294451 L570.468115,141.283361 C569.286211,145.043363 568.595638,148.940453 568.413586,152.877631 C568.19732,160.687243 571.092884,164.507945 573.465804,166.3402 C574.354026,167.06446 575.376961,167.605534 576.475508,167.932159 Z" id="Shape" fill="#EFB7B9"></path>
                    <path d="M570.486137,141.313398 C569.304233,145.0734 568.61366,148.97049 568.431608,152.907668 C567.911479,153.528016 567.355866,154.117728 566.76756,154.673841 C560.750437,160.425863 552.061229,162.410122 544.143715,159.8402 C544.143715,154.980219 541.872921,150.294451 541.872921,150.294451 L570.486137,141.313398 Z" id="Shape" fill="#000000" opacity="0.1"></path>
                    <path d="M573.766174,137.654895 C573.763738,146.807025 568.247472,155.056171 559.790378,158.554606 C551.333285,162.053042 541.601469,160.111551 535.134235,153.635722 C528.667001,147.159892 526.738438,137.425507 530.248103,128.973067 C533.757768,120.520628 542.014234,115.015322 551.166359,115.025043 C557.171303,115.005765 562.935425,117.38475 567.178763,121.633727 C571.422101,125.882705 573.793427,131.649982 573.766174,137.654895 Z" id="Shape" fill="#EFB7B9"></path>
                    <path d="M576.475508,167.932159 L573.766174,181.238536 L560.501848,203.531975 L544.143715,196.545376 C544.143715,196.545376 521.916359,173.25471 535.883549,169.926614 C537.556817,169.569235 539.136653,168.865266 540.521257,167.860071 C537.998152,174.79861 548.414972,189.22837 548.414972,189.22837 C549.616451,191.030588 552.409889,189.889183 552.409889,189.889183 C559.11414,188.879941 571.471349,169.578185 573.483826,166.370237 C574.369183,167.081713 575.385644,167.612395 576.475508,167.932159 Z" id="Shape" fill="#000000" opacity="0.1"></path>
                    <path d="M589.283272,296.964969 C585.348429,297.860071 563.553604,302.690015 555.287431,301.482529 C546.198244,300.148888 528.512477,299.265801 528.512477,299.265801 C528.512477,299.265801 517.254621,299.86654 513.788355,298.292603 C513.788355,297.872085 513.824399,297.637797 513.824399,297.637797 L520.240296,289.948333 C520.240296,289.948333 582.356747,285.292603 587.012477,289.948333 C588.159889,291.083731 588.862754,293.678925 589.283272,296.964969 Z" id="Shape" fill="#000000" opacity="0.1"></path>
                    <path d="M548.414972,189.889183 C548.414972,189.889183 536.712569,173.66922 541.121996,167.367464 L521.351664,175.471439 C521.351664,175.471439 509.451017,174.029664 505.131701,191.78752 C504.44225,194.738324 504.19325,197.774909 504.392791,200.79861 C504.548983,203.477908 504.18854,208.193712 501.136784,214.291217 C496.252773,224.053232 497.36414,246.454803 507.348429,248.677538 C517.332717,250.900274 520.877079,249.782899 520.877079,249.782899 C520.877079,249.782899 519.549445,290.380866 513.782348,295.036596 C508.01525,299.692326 528.48244,298.586965 528.48244,298.586965 C528.48244,298.586965 546.168207,299.47606 555.263401,300.803694 C564.358595,302.131328 589.865989,296.147963 589.865989,296.147963 C589.865989,296.147963 586.093346,279.062936 584.765712,268.195561 C583.438078,257.328185 580.326248,234.181697 580.326248,234.181697 L602.9561,203.543989 C602.9561,203.543989 606.945009,185.023195 592.971811,176.817095 C578.998614,168.610995 573.748152,166.604525 573.748152,166.604525 C573.748152,166.604525 559.726895,189.432622 552.409889,190.556004 C552.409889,190.556004 549.628466,191.673379 548.414972,189.889183 Z" id="Shape" fill="#664FFA"></path>
                    <path d="M522.463031,196.323102 C522.463031,196.323102 522.240758,203.646115 523.568392,206.535671 C524.896026,209.425228 529.780037,225.39288 529.780037,225.39288 L518.690388,225.39288 C518.690388,225.39288 524.697782,218.958962 524.235213,215.853139 C523.772643,212.747317 522.463031,196.323102 522.463031,196.323102 Z" id="Shape" fill="#000000" opacity="0.1"></path>
                    <path d="M555.293438,251.561087 C555.293438,251.561087 530.795287,245.553694 528.512477,240.465431 C526.229667,235.377169 519.927911,223.951106 519.927911,223.951106 L522.511091,220.466817 L534.42976,229.820329 C534.42976,229.820329 548.625231,241.132252 555.281423,242.24362 C561.937616,243.354988 555.293438,251.561087 555.293438,251.561087 Z" id="Shape" fill="#FBBEBE"></path>
                    <path d="M555.293438,251.561087 C555.293438,251.561087 530.795287,245.553694 528.512477,240.465431 C526.229667,235.377169 519.927911,223.951106 519.927911,223.951106 L522.511091,220.466817 L534.42976,229.820329 C534.42976,229.820329 548.625231,241.132252 555.281423,242.24362 C561.937616,243.354988 555.293438,251.561087 555.293438,251.561087 Z" id="Shape" fill="#000000" opacity="0.05"></path>
                    <path d="M576.475508,222.725597 L576.475508,236.013952 L574.336876,236.013952 C563.782768,236.015978 553.402735,238.703499 544.173752,243.823564 L540.172828,246.0463 L539.097505,246.647039 L532.219039,231.159978 L538.652957,225.39288 L538.983364,225.39288 C540.557301,225.543065 547.363678,226.113768 550.247227,225.14057 C552.986599,224.209424 556.386784,221.259793 564.454713,223.338352 C568.431608,224.353601 571.825786,228.811087 575.682532,227.417372 L576.475508,222.725597 Z" id="Shape" fill="#FBBEBE"></path>
                    <path d="M597.879852,198.545838 L602.319316,203.531975 L602.319316,215.624858 C602.319316,215.624858 598.546673,253.777816 586.56793,257.995006 C574.589187,262.212196 553.208872,255.549997 553.208872,255.549997 C553.208872,255.549997 547.68207,240.909978 550.26525,240.026891 C552.848429,239.143805 573.093346,233.791217 573.093346,233.791217 C573.093346,233.791217 572.810998,211.407668 577.244455,204.751476 C577.244455,204.751476 574.360906,183.905819 584.345194,183.461272 C594.329482,183.016725 597.879852,198.545838 597.879852,198.545838 Z" id="Shape" fill="#000000" opacity="0.1"></path>
                    <path d="M598.546673,198.545838 L602.986137,203.531975 L602.986137,215.624858 C602.986137,215.624858 599.225508,253.777816 587.210721,257.995006 C575.195933,262.212196 553.845656,255.549997 553.845656,255.549997 C553.845656,255.549997 548.324861,240.909978 550.908041,240.026891 C553.49122,239.143805 573.736137,233.791217 573.736137,233.791217 C573.736137,233.791217 573.447782,211.407668 577.887246,204.751476 C577.887246,204.751476 575.003697,183.905819 584.987985,183.461272 C594.972274,183.016725 598.546673,198.545838 598.546673,198.545838 Z" id="Shape" fill="#664FFA"></path>
                    <path d="M567.560536,147.266725 C567.650647,145.806928 567.680684,144.263028 567.055915,142.947409 C566.431146,141.63179 564.965342,140.580496 563.535582,140.91691 C561.637246,141.361457 560.82024,143.830496 558.957948,144.425228 C557.390018,144.923841 555.677911,143.824488 554.932994,142.34667 C554.188078,140.868851 554.164048,139.162751 554.158041,137.540755 C554.158041,135.690477 554.158041,133.834193 554.158041,131.983915 C554.158041,129.965431 554.091959,127.77874 552.848429,126.204803 C551.304529,124.22837 547.670055,123.369313 545.243068,123.447409 C543.626422,123.466196 542.075984,124.092376 540.899723,125.201568 C539.602126,126.300921 538.100277,127.117927 536.328096,126.823564 C534.825613,126.595857 533.587307,125.525774 533.144177,124.072178 L533.144177,124.000089 C538.28643,117.20616 546.809698,113.877573 555.195241,115.388501 C563.580784,116.899428 570.406239,122.993585 572.85379,131.155063 C575.301341,139.316541 572.955833,148.160984 566.785582,154.037058 C567.170956,151.796641 567.429685,149.536275 567.560536,147.266725 Z" id="Shape" fill="#000000" opacity="0.1"></path>
                    <path d="M536.316081,126.138721 C534.812687,125.908647 533.574627,124.83644 533.132163,123.381328 C532.945933,122.666448 532.993993,121.903509 532.783734,121.188629 C532.267098,119.446485 530.380776,118.539368 529.179298,117.217742 C526.680222,114.562474 526.842421,110.201106 528.614603,107.005172 C530.044362,104.434008 532.819778,102.265339 535.709335,102.763952 C537.511553,103.076337 539.055453,104.355912 540.875693,104.470052 C542.695933,104.584193 544.221811,103.59898 545.819778,102.872085 C549.665421,101.130368 553.988735,100.746968 558.080869,101.784747 C559.338701,102.03741 560.505069,102.624745 561.457024,103.48484 C562.100972,104.296237 562.702515,105.140403 563.259242,106.013952 C565.331793,108.651198 569.032348,109.167834 572.330407,109.762566 C575.628466,110.357298 579.35305,111.660902 580.440388,114.832806 C581.155268,116.935394 580.440388,119.218204 580.049908,121.404895 C579.91081,121.850467 579.940751,122.331667 580.134011,122.756559 C580.650647,123.609609 581.936229,123.255172 582.909427,123.459424 C584.783734,123.849904 585.264325,126.258869 585.312384,128.16922 C585.392483,130.355912 585.452557,132.542603 585.492606,134.729294 C585.718359,136.786155 584.94295,138.826352 583.408041,140.214045 L576.085028,149.014877 C572.835028,152.919683 569.386784,157.46728 570.04159,162.501476 C568.503697,163.192326 566.677449,161.858684 566.172828,160.248703 C565.668207,158.638721 566.07671,156.908592 566.413124,155.256559 C567.005866,152.400379 567.393333,149.505423 567.572551,146.593897 C567.662662,145.128093 567.692699,143.5902 567.06793,142.274581 C566.443161,140.958962 564.977357,139.871623 563.547597,140.238074 C561.649261,140.682622 560.832255,143.15166 558.969963,143.746392 C557.408041,144.245006 555.689926,143.145653 554.945009,141.667834 C554.200092,140.190015 554.176063,138.483915 554.170055,136.861919 L554.170055,131.299073 C554.170055,129.286596 554.103974,127.093897 552.860444,125.51996 C551.316543,123.543527 547.68207,122.68447 545.255083,122.762566 C543.638672,122.782526 542.088644,123.40854 540.911738,124.516725 C539.590111,125.616078 538.088262,126.427076 536.316081,126.138721 Z" id="Shape" fill="#585268"></path>
                    <path d="M541.428373,195.770422 L548.372921,224.305542 C548.372921,224.305542 553.851664,224.275505 541.428373,195.770422 Z" id="Shape" fill="#000000" opacity="0.1"></path>
                    <path d="M565.163586,191.000551 C565.163586,191.000551 556.068392,205.898888 559.618762,221.295838 L561.312847,221.421993 C561.312847,221.421993 558.28512,214.291217 565.163586,191.000551 Z" id="Shape" fill="#000000" opacity="0.1"></path>
                    <path d="M570.930684,275.2963 C570.930684,275.2963 582.098429,271.601753 582.909427,280.174304 C582.909427,280.174304 580.800832,274.299073 570.930684,275.2963 Z" id="Shape" fill="#000000" opacity="0.1"></path>
                    <path d="M538.652957,226.077723 C538.652957,226.077723 536.436229,241.606836 540.455176,247.818481 C540.455176,247.818481 532.333179,251.146577 520.931146,250.479756 L519.579482,226.077723 L538.652957,226.077723 Z" id="Shape" fill="#000000" opacity="0.1"></path>
                    <path d="M540.172828,246.040293 L539.097505,246.641032 L532.219039,231.153971 L538.652957,225.386873 L538.983364,225.386873 C538.881238,226.13179 537.091035,239.468204 540.172828,246.040293 Z" id="Shape" fill="#000000" opacity="0.1"></path>
                    <path d="M538.652957,225.386873 C538.652957,225.386873 536.436229,240.909978 540.455176,247.121623 C540.455176,247.121623 532.333179,250.449719 520.931146,249.782899 L513.169593,225.386873 L538.652957,225.386873 Z" id="Shape" fill="#664FFA"></path>
                    <path d="M519.465342,484.461734 C519.200856,486.737396 517.428163,488.544702 515.158041,488.853139 C509.150647,489.754248 494.624769,492.049073 490.960259,493.791217 C486.304529,496.007945 467.891867,494.458037 467.002773,492.241309 C466.752182,491.34508 466.866656,490.386088 467.321165,489.574026 C467.962106,488.218311 469.012819,487.09825 470.324861,486.372085 C470.748392,486.128118 471.195138,485.926881 471.658503,485.771346 C475.124769,484.611919 481.672828,482.16691 483.445009,479.583731 C483.445009,479.583731 491.609057,472.440939 493.933919,468.578185 C494.824572,467.037837 496.423864,466.042221 498.199168,465.922917 C500.145564,465.832806 502.308226,466.812012 503.191312,471.071254 C503.191312,471.071254 513.836414,477.144729 516.713956,471.816171 C516.713956,471.816171 517.158503,479.998241 518.924677,482.232991 C519.396275,482.873439 519.59106,483.676385 519.465342,484.461734 Z" id="Shape" fill="#A27772"></path>
                    <path d="M519.465342,484.461734 C519.200856,486.737396 517.428163,488.544702 515.158041,488.853139 C509.150647,489.754248 494.624769,492.049073 490.960259,493.791217 C486.304529,496.007945 467.891867,494.458037 467.002773,492.241309 C466.752182,491.34508 466.866656,490.386088 467.321165,489.574026 C467.962106,488.218311 469.012819,487.09825 470.324861,486.372085 C473.328558,488.36654 479.990758,490.312936 494.648799,488.024119 C508.628004,485.843435 515.548521,483.704803 518.924677,482.245006 C519.393107,482.882339 519.587731,483.680299 519.465342,484.461734 Z" id="Shape" fill="#000000" opacity="0.1"></path>
                    <g id="Group" opacity="0.1" transform="translate(526.848429, 111.726984)" fill="#000000">
                        <path d="M53.1534196,10.0023105 L53.1534196,9.89417745 C53.4718115,8.23012939 53.9463956,6.51201479 53.8382625,4.85397412 C53.6958861,6.21478353 53.4671439,7.56516544 53.1534196,8.89695009 C53.0694643,9.26062109 53.0694643,9.63863954 53.1534196,10.0023105 Z" id="Shape"></path>
                        <path d="M40.2014787,30.7638632 C40.5512056,31.5639058 40.7370883,32.4259115 40.7481516,33.2989834 C40.8510057,32.0947602 40.6635382,30.8834319 40.2014787,29.7666359 C39.6007394,28.4390018 38.1169131,27.3937153 36.6871534,27.7301294 C34.788817,28.1746765 33.9718115,30.6437153 32.1095194,31.2384473 C30.5415896,31.737061 28.8294824,30.6377079 28.0785582,29.1598891 C27.327634,27.6820702 27.3156192,25.9759704 27.3096118,24.3539741 C27.3096118,22.4976895 27.3096118,20.6474122 27.3096118,18.7911275 C27.3096118,16.7786506 27.2435305,14.5859519 26,13.0120148 C24.4560998,11.0355823 20.8156192,10.176525 18.3946396,10.2546211 C16.777993,10.2734082 15.2275555,10.8995877 14.0512939,12.00878 C12.7476895,13.1141405 11.2518484,13.9251386 9.47966728,13.6367837 C7.97627311,13.4067096 6.73821301,12.3345029 6.29574861,10.87939 C6.10951941,10.1645102 6.15757856,9.40157116 5.94731978,8.68669131 C5.42467652,6.94454713 3.54436229,6.03743068 2.34288355,4.71580407 C1.17477634,3.4283083 0.51126669,1.76206703 0.474584104,0.0240295749 C0.28747191,2.09671773 0.96336807,4.1548324 2.34288355,5.71303142 C3.59242144,7.03465804 5.4487061,7.94778189 5.94731978,9.68992606 C6.15757856,10.3987985 6.10951941,11.1617375 6.29574861,11.8766174 C6.73821301,13.3317302 7.97627311,14.403937 9.47966728,14.6340111 C11.2818854,14.922366 12.7476895,14.1113678 14.0512939,13.0060074 C15.2275555,11.896815 16.777993,11.2706356 18.3946396,11.2518484 C20.797597,11.1737523 24.4560998,12.038817 26,14.0092421 C27.2435305,15.5951941 27.3036044,17.775878 27.3096118,19.7883549 C27.3096118,21.6446396 27.3096118,23.4949168 27.3096118,25.3512015 C27.3096118,26.9972274 27.3096118,28.7093346 28.0785582,30.1571165 C28.8475046,31.6048983 30.5415896,32.7342884 32.1095194,32.2356747 C33.9718115,31.6349353 34.788817,29.1719039 36.6871534,28.7273567 C38.1349353,28.3969501 39.5827172,29.4362292 40.2014787,30.7638632 Z" id="Shape"></path>
                        <path d="M58.4339187,24.6543438 C58.029085,25.7940509 57.3860312,26.8344055 56.547597,27.7060998 C54.1085952,30.6417129 51.6675909,33.5753235 49.2245841,36.5069316 C46.1427911,40.2134935 42.8747689,44.5027726 43.1150647,49.2305915 C43.3373383,44.8932532 46.3590573,40.9463956 49.2245841,37.504159 L56.547597,28.7093346 C57.3848636,27.8344271 58.0276941,26.7923867 58.4339187,25.6515712 C58.6152468,24.864309 58.6800163,24.054691 58.6261553,23.2486137 C58.6200574,23.7233075 58.5554921,24.1954415 58.4339187,24.6543438 Z" id="Shape"></path>
                        <path d="M39.336414,47.7407579 C39.218012,47.3499982 39.1454362,46.9467992 39.1201479,46.5392791 C39.0571833,47.2752734 39.1304982,48.0165688 39.336414,48.7259704 C39.8410351,50.3359519 41.6732902,51.663586 43.211183,50.9727357 C43.1691312,50.6483364 43.1451017,50.3239372 43.1330869,49.9995379 C41.5831793,50.6363216 39.8049908,49.3267098 39.336414,47.7407579 Z" id="Shape"></path>
                    </g>
                    <path d="M492.450092,470.578647 C492.450092,470.578647 494.768946,474.657668 503.167283,471.065246" id="Shape" fill="#000000" opacity="0.1"></path>
                    <path d="M563.481516,471.581882 C563.481516,471.581882 570.726433,480.112381 579.857671,474.37532" id="Shape" fill="#000000" opacity="0.1"></path>
                    <path d="M584.573475,370.67569 C584.573475,370.67569 579.449168,373.877631 579.286969,375.709886 C579.124769,377.542141 581.930222,374.376244 581.930222,374.376244 L584.573475,370.67569 Z" id="Shape" fill="#000000" opacity="0.1"></path>
                    <path d="M586.609982,395.203878 C584.829511,396.686156 582.616017,397.550473 580.302218,397.66691 C576.475508,397.835117 576.7939,402.827261 579.292976,401.325413 C581.792052,399.823564 586.609982,395.203878 586.609982,395.203878 Z" id="Shape" fill="#000000" opacity="0.1"></path>
                    <path d="M587.565157,398.405819 C587.565157,398.405819 585.108133,410.480681 583.113678,408.149812" id="Shape" fill="#000000" opacity="0.1"></path>
                </g>
            </g>
        </g>
    </g>
</svg>